<?xml version="1.0" encoding="UTF-8" standalone="no"?>
<!-- Created using Krita: http://krita.org -->

<svg
   xmlns:dc="http://purl.org/dc/elements/1.1/"
   xmlns:cc="http://creativecommons.org/ns#"
   xmlns:rdf="http://www.w3.org/1999/02/22-rdf-syntax-ns#"
   xmlns:svg="http://www.w3.org/2000/svg"
   xmlns="http://www.w3.org/2000/svg"
   xmlns:sodipodi="http://sodipodi.sourceforge.net/DTD/sodipodi-0.dtd"
   xmlns:inkscape="http://www.inkscape.org/namespaces/inkscape"
   width="1024"
   height="1024"
   viewBox="0 0 767.99997 767.99999"
   version="1.1"
   id="svg7"
   sodipodi:docname="bboy.svg"
   inkscape:version="0.92.5 (2060ec1f9f, 2020-04-08)">
  <metadata
     id="metadata11">
    <rdf:RDF>
      <cc:Work
         rdf:about="">
        <dc:format>image/svg+xml</dc:format>
        <dc:type
           rdf:resource="http://purl.org/dc/dcmitype/StillImage" />
        <dc:title></dc:title>
      </cc:Work>
    </rdf:RDF>
  </metadata>
  <sodipodi:namedview
     pagecolor="#ffffff"
     bordercolor="#666666"
     borderopacity="1"
     objecttolerance="10"
     gridtolerance="10"
     guidetolerance="10"
     inkscape:pageopacity="0"
     inkscape:pageshadow="2"
     inkscape:window-width="1366"
     inkscape:window-height="704"
     id="namedview9"
     showgrid="false"
     units="px"
     inkscape:zoom="0.35841322"
     inkscape:cx="595.94023"
     inkscape:cy="349.48631"
     inkscape:window-x="0"
     inkscape:window-y="27"
     inkscape:window-maximized="1"
     inkscape:current-layer="svg7" />
  <defs
     id="defs2" />
  <path
     id="shape0"
     d="m 550.53085,537.47778 -1.17692,-3.79266 -1.26874,-3.75114 -1.35879,-3.70874 -0.3703,-0.93626 -15.88015,-8.01499 -6.09927,4.85131 -12.82024,-16.66421 -7.45807,1.34538 11.99875,16.48805 -6.57843,1.38472 -11.40504,-13.75841 -8.89338,2.72091 -11.0085,11.30981 -16.46118,0.56734 3.27457,-12.41346 15.81632,-0.90129 2.28739,-5.80242 -5.85532,-2.00845 0.94827,-3.39796 11.44658,-2.13652 4.32558,-8.76329 10.09784,-0.26794 -2.07711,-8.27288 -11.80376,-5.4947 12.57891,-12.86446 -0.19805,-0.17703 -2.9528,-2.51215 -3.01444,-2.44086 -3.0739,-2.36835 -3.13336,-2.29444 -3.1902,-2.21934 -3.24659,-2.14286 -3.30124,-2.06513 -3.35458,-1.98607 -3.40704,-1.90569 -3.45776,-1.82408 -3.50715,-1.74112 -3.55569,-1.65689 -3.60203,-1.57135 -3.64794,-1.4845 -3.69209,-1.39634 -3.73493,-1.30696 -3.77691,-1.21617 -3.81669,-1.12416 -3.85604,-1.0308 -3.8932,-0.93619 -3.92992,-0.84025 -3.9649,-0.74302 -3.99856,-0.6445 -4.03092,-0.54467 -4.06196,-0.44354 5.30621,5.11645 -8.87326,-2.8208 -3.49404,-0.045 -3.45076,1.11804 -3.99376,2.49954 -12.28117,0.23131 -13.23907,-0.7261 6.97366,-5.15598 -4.0554,0.49695 -4.02348,0.59766 -3.98982,0.69706 -3.95441,0.79513 -3.91856,0.89189 -3.88095,0.98733 -3.84161,1.08146 -3.80183,1.1743 -3.76029,1.26578 -3.71745,1.35595 -3.67373,1.44481 -3.62783,1.53241 -3.58148,1.6186 -3.53339,1.70353 -3.48398,1.78711 -1.07637,0.58609 0.40221,-0.18183 1.05801,-0.45514 28.61863,11.84161 26.17777,-5.4023 27.7661,4.01768 -8.69007,10.1057 -11.51522,-2.02642 -2.29744,-7.11663 -32.91273,10.73866 -9.35986,11.89476 18.74857,14.2886 13.34311,-20.91013 23.89083,2.65491 0.52288,24.08474 -33.83171,15.17372 -10.24124,16.91291 -20.22015,12.44843 -0.28811,9.52122 -2.64895,-3.11648 -2.42948,-6.86194 -18.47007,1.30123 -12.70263,11.9261 2.23361,11.63107 12.13078,-2.30785 11.31499,9.07275 2.38007,11.68877 9.78481,3.12085 8.14271,-5.04144 25.75326,3.54221 20.22016,10.44392 2.08716,10.6511 36.73947,15.4163 -9.49669,13.44282 -1.69587,20.78294 -15.68429,3.79398 0.83592,14.92763 -14.0811,18.80115 -13.11359,7.85939 5.10772,9.1781 -5.25287,7.9704 4.74092,9.35862 -11.1436,-6.97602 -12.82592,-24.98603 0.0743,-48.74515 -15.07833,-11.02001 -11.27039,-17.23592 0.72312,-13.12986 7.47336,-3.85474 -6.02669,-12.37849 -9.52599,-3.57587 -39.20743,-23.38102 -12.5612,-27.35028 -5.16132,14.86207 -15.86335,-23.96892 -0.73886,1.94419 -1.31013,3.72623 -1.21925,3.76731 -1.12695,3.80796 -1.03339,3.84687 -0.93853,3.88401 -0.84239,3.9203 -0.74491,3.9557 -0.64615,3.98892 -0.54609,4.02126 -0.44473,4.05186 -0.34205,4.08202 -0.23808,4.11043 -0.13281,4.13709 -0.0262,4.16289 0.081,4.162 0.18726,4.13535 0.29218,4.1065 0.39576,4.07721 0.49802,4.04574 0.59899,4.01383 0.69861,3.98018 0.79692,3.94521 0.89393,3.90893 0.98958,3.87177 1.08398,3.83244 1.17696,3.79267 1.26869,3.75114 1.3591,3.70874 1.4482,3.66459 1.53595,3.61914 1.62238,3.57281 1.7075,3.52472 1.79131,3.47577 1.8738,3.42507 1.95495,3.37349 2.03483,3.32016 2.11334,3.26597 2.19055,3.21045 2.26641,3.1532 2.34104,3.09506 2.41426,3.03562 2.48618,2.97442 2.55679,2.91236 2.62613,2.84898 2.69403,2.78428 2.76087,2.71785 2.82601,2.65098 2.88984,2.58191 2.9528,2.51242 3.01444,2.44073 3.07434,2.36817 3.13292,2.29475 3.1902,2.21912 3.24659,2.14307 3.30124,2.06484 3.35502,1.98615 3.4066,1.90573 3.45776,1.82399 3.50715,1.74138 3.55569,1.65659 3.60247,1.57135 3.6475,1.48481 3.69209,1.39608 3.73537,1.30691 3.77647,1.21643 3.81669,1.12421 3.85604,1.03066 3.89364,0.93626 3.92948,0.84009 3.9649,0.74306 3.99857,0.64472 4.03091,0.54461 4.06196,0.44322 4.09168,0.34137 4.1201,0.23734 4.14678,0.13244 4.173,0.0258 4.17213,-0.0809 4.14502,-0.18708 4.11661,-0.29154 4.08687,-0.3947 4.05584,-0.49697 4.02304,-0.59751 3.98982,-0.69717 3.95485,-0.79507 3.91812,-0.89211 3.88095,-0.98739 3.84205,-1.08137 3.80183,-1.17447 3.76029,-1.26539 3.71745,-1.3563 3.67329,-1.4446 3.62783,-1.53245 3.58148,-1.61856 3.53339,-1.70335 3.48399,-1.78728 3.43327,-1.86945 3.38168,-1.95031 3.32835,-2.0303 3.2737,-2.10811 3.21817,-2.18547 3.1609,-2.26108 3.10232,-2.3354 3.04286,-2.40882 2.98166,-2.48007 2.91957,-2.55088 2.85574,-2.61994 2.79104,-2.68769 2.72458,-2.75413 2.65726,-2.81969 2.58862,-2.88307 2.19558,-2.56881 -4.26176,-14.34848 -6.2759,-10.02212 0.38342,-10.28744 -5.69574,-9.00151 6.3594,-14.44683 -11.0872,-15.19338 -0.0826,-16.11303 -14.4326,-3.63007 -25.96181,3.65498 -13.18835,-18.20146 -0.1657,-19.56957 17.61187,-12.90519 5.5318,-15.11427 33.87586,-3.24848 17.70411,14.46168 9.54567,-5.05062 21.154,4.17731 z"
     inkscape:connector-curvature="0"
     style="fill:#63000a;fill-rule:evenodd;stroke:#000000;stroke-width:0;stroke-linecap:square;stroke-linejoin:bevel;stroke-opacity:0" />
  <path
     id="shape1"
     d="m 277.51696,66.197942 0.59021,-0.834719 0.55042,-0.782747 0.51152,-0.7334 0.47523,-0.686674 0.43981,-0.642528 0.40747,-0.600917 0.37555,-0.561972 0.34625,-0.525605 0.31915,-0.491818 0.29292,-0.460653 0.26931,-0.432024 0.24658,-0.40606 0.2269,-0.382632 0.20811,-0.361826 0.19192,-0.343644 0.17663,-0.327951 0.16395,-0.31497 0.15258,-0.304523 0.1434,-0.2967 0.13553,-0.291454 0.13028,-0.288788 0.12635,-0.288743 0.12416,-0.291236 0.12373,-0.296437 0.12547,-0.304086 0.12941,-0.314445 0.13422,-0.32734 0.21291,-0.498374 0.22603,-0.491381 0.23871,-0.484737 0.25138,-0.478618 0.26407,-0.472848 0.27586,-0.467559 0.28768,-0.462664 0.29947,-0.458206 0.31085,-0.45414 0.32177,-0.450557 0.33314,-0.447322 0.3432,-0.444612 0.35412,-0.442207 0.36419,-0.440329 0.37423,-0.438824 0.38429,-0.437759 0.39348,-0.437107 0.40265,-0.436888 0.43676,-0.43264 0.46298,-0.391313 0.48616,-0.351244 0.5054,-0.31243 0.52201,-0.27488 0.53512,-0.238583 0.54474,-0.203546 0.55217,-0.169766 0.55524,-0.137246 0.55567,-0.105982 0.55305,-0.07598 0.54649,-0.04723 0.53731,-0.01974 0.52507,0.0065 0.50933,0.03146 0.49009,0.05518 0.4678,0.07764 0.44287,0.09883 0.41402,0.118774 0.38211,0.137457 0.34713,0.15488 0.3091,0.171048 0.26712,0.185957 0.22297,0.199612 0.17488,0.211999 0.12372,0.223137 0.0853,0.207143 0.0608,0.169304 0.038,0.13813 0.0149,0.113614 -0.007,0.09576 -0.0289,0.08457 -0.0494,0.08004 -0.0704,0.08217 -0.0901,0.09096 -0.1093,0.106415 -0.12809,0.128523 -0.14603,0.157305 -0.16394,0.192737 -0.18056,0.234837 -0.19718,0.283591 -0.21291,0.339019 -0.22865,0.401108 -0.24264,0.469832 -0.25751,0.545231 -0.27062,0.627317 -0.28374,0.716047 -0.29598,0.811421 -0.30778,0.913483 -0.31915,1.022188 -0.32965,1.137536 -0.34013,1.259574 -0.18668,0.712025 -0.18669,0.701929 -0.18624,0.690258 -0.18449,0.677059 -0.18319,0.662284 -0.18056,0.645938 -0.1775,0.62806 -0.17356,0.608609 -0.16964,0.587586 -0.16482,0.565031 -0.15957,0.54086 -0.15346,0.515202 -0.14689,0.487928 -0.1399,0.459124 -0.13204,0.428701 -0.12372,0.396838 -0.11455,0.363269 -0.10536,0.328257 -0.0118,0.03624 0.0354,-0.178247 0.0463,-0.244073 0.0345,-0.191928 0.0214,-0.139826 0.01,-0.08768 -0.004,-0.03558 -0.0153,0.01661 -0.0284,0.06867 -0.0402,0.120857 -0.0529,0.172958 -0.0656,0.22506 -0.0778,0.277248 -0.0892,0.326422 -0.0717,0.269556 -0.0546,0.214176 -0.038,0.160413 -0.0219,0.108181 -0.007,0.05748 0.008,0.0084 0.0223,-0.03912 0.0358,-0.08515 0.049,-0.129511 0.0616,-0.172434 0.073,-0.213695 0.0848,-0.253427 0.0835,-0.255394 -0.0236,0.117972 -0.0717,0.34832 -0.0839,0.400465 -0.0962,0.452611 -0.10886,0.504712 -0.1211,0.556858 -0.13378,0.608959 -0.14602,0.661105 -0.1587,0.713249 -0.17095,0.765352 -0.18362,0.817496 -0.19586,0.869599 -0.2081,0.921743 -0.22078,0.973894 0.25138,0.73117 0.24964,0.71272 0.24701,0.69428 0.24439,0.67588 0.24264,0.65744 0.24002,0.63898 0.23784,0.62059 0.23564,0.6021 0.23346,0.58369 0.23084,0.56529 0.22909,0.54681 0.22647,0.5284 0.22384,0.50996 0.22209,0.49155 0.21947,0.47307 0.21729,0.45467 0.2151,0.43626 0.21291,0.41777 0.21029,0.39938 0.20854,0.38092 0.20592,0.36249 0.20329,0.34408 0.20155,0.32563 0.19892,0.30719 0.19674,0.28874 0.19455,0.27017 0.19236,0.25221 0.18974,0.2334 0.188,0.21505 0.18537,0.1967 0.18274,0.17789 0.181,0.15998 0.17838,0.14118 0.3974,0.30859 0.39391,0.33263 0.39129,0.35536 0.38823,0.37764 0.38473,0.39951 0.3821,0.42136 0.37861,0.4419 0.37599,0.46201 0.37205,0.48167 0.36899,0.50091 0.36593,0.51971 0.36243,0.53762 0.35937,0.55511 0.35544,0.57216 0.35238,0.58833 0.34844,0.6045 0.34538,0.61936 0.34145,0.63466 0.33839,0.64865 0.33401,0.66219 0.33096,0.67531 0.32702,0.68799 0.32308,0.699794 0.31959,0.71159 0.31565,0.72208 0.31172,0.733 0.30779,0.74219 0.30385,0.7518 0.29991,0.76054 0.29598,0.76885 0.29204,0.77628 0.28768,0.78327 0.28373,0.78983 0.27937,0.79595 0.27543,0.80119 0.27062,0.806 0.26713,0.81037 0.26231,0.81431 0.25795,0.81737 0.25357,0.82042 0.24964,0.82217 0.24439,0.82393 0.24045,0.82479 0.23565,0.82524 0.23127,0.82523 0.22647,0.82479 0.22209,0.82349 0.21729,0.82174 0.21204,0.81911 0.2081,0.81693 0.20286,0.81299 0.19805,0.8095 0.1928,0.80469 0.18843,0.79988 0.18318,0.79464 0.17838,0.78808 0.17312,0.78152 0.16832,0.77453 0.16308,0.76623 0.15782,0.75836 0.15302,0.74961 0.14733,0.73957 0.14253,0.73038 0.24526,1.2597 0.23434,1.17229 0.2234,1.08793 0.21292,1.0075 0.20242,0.9297 0.19192,0.85539 0.18275,0.78458 0.17313,0.71727 0.16395,0.65302 0.1552,0.59183 0.1469,0.53456 0.13815,0.48037 0.13072,0.42923 0.12285,0.38202 0.11586,0.33743 0.10842,0.29679 0.10187,0.2592 0.0957,0.22466 0.0892,0.19407 0.0839,0.16653 0.0778,0.14206 0.073,0.12107 0.0682,0.10403 0.0638,0.0892 0.059,0.0787 0.0555,0.0708 0.0516,0.0669 0.0481,0.066 0.0455,0.0682 0.0424,0.0739 0.0402,0.083 0.038,0.0953 0.0359,0.11102 0.0345,0.13026 0.0337,0.15254 0.0442,0.205 0.0555,0.23079 0.0673,0.25613 0.0787,0.28193 0.0901,0.30771 0.10143,0.33351 0.11279,0.35929 0.12373,0.38508 0.13553,0.41174 0.14602,0.43753 0.15783,0.46376 0.16831,0.49042 0.17969,0.51664 0.19062,0.54287 0.20198,0.56997 0.21248,0.59664 0.2234,0.62285 0.2339,0.6504 0.24526,0.67706 0.25532,0.70416 0.0783,0.21199 0.0848,0.22947 0.0922,0.24565 0.0988,0.26182 0.10493,0.27711 0.11104,0.29198 0.1163,0.30684 0.12154,0.32039 0.12634,0.33394 0.13116,0.34706 0.1351,0.35972 0.13859,0.3711 0.14252,0.38289 0.14559,0.39382 0.14777,0.40431 0.15083,0.41437 0.15258,0.42354 0.15389,0.43273 0.15564,0.44102 0.15652,0.4489 0.15738,0.45632 0.15739,0.46332 0.15739,0.46988 0.15696,0.47556 0.15607,0.48124 0.15521,0.48561 0.15345,0.49042 0.15171,0.49435 0.14952,0.49785 0.14733,0.50047 0.14427,0.5031 0.14078,0.50484 0.13728,0.50616 0.13334,0.50746 0.12897,0.50747 0.1246,0.50747 0.11936,0.50702 0.1141,0.50572 0.10843,0.50397 0.10274,0.50179 0.0957,0.49959 0.0892,0.49611 0.0822,0.4926 0.0748,0.48823 0.0669,0.48387 0.059,0.47861 0.0498,0.47294 0.0853,0.86282 0.0761,0.75486 0.0695,0.65783 0.0647,0.57303 0.0625,0.49873 0.0621,0.43578 0.0638,0.38377 0.0673,0.34399 0.073,0.31471 0.0813,0.29678 0.0909,0.2898 0.10274,0.29503 0.11717,0.31034 0.13334,0.33788 0.15127,0.3759 0.17138,0.42573 0.19018,0.4419 0.21553,0.44496 0.24177,0.44846 0.268,0.45195 0.29379,0.45502 0.31959,0.45807 0.34538,0.46157 0.37162,0.46507 0.39741,0.46769 0.42364,0.47163 0.44943,0.47424 -0.25751,0.76666 -0.23477,0.72121 -0.21204,0.67531 -0.18974,0.62941 -0.16701,0.5844 -0.14427,0.5385 -0.12154,0.49304 -0.0988,0.44715 -0.0765,0.40169 -0.0538,0.35623 -0.031,0.31077 -0.009,0.26488 0.0144,0.21942 0.0363,0.17353 0.0595,0.12807 0.08,0.13812 0.0879,0.18839 0.0962,0.23909 0.10449,0.28979 0.1128,0.33962 0.1211,0.39033 0.12897,0.44102 0.13772,0.4913 0.14558,0.54199 0.15389,0.59227 0.16177,0.64252 0.1705,0.69324 0.17838,0.74349 0.18668,0.79376 0.76858,0.50266 0.69557,0.47993 0.62213,0.4572 0.54955,0.43491 0.47654,0.41174 0.40353,0.38945 0.33052,0.36672 0.25707,0.344 0.18449,0.32126 0.28112,0.49873 0.38079,0.55073 0.45424,0.58134 0.50059,0.58964 0.51938,0.57565 0.51239,0.54025 0.47786,0.48255 0.41664,0.40256 0.32877,0.30072 0.11105,0.0839 0.15039,0.0887 0.18887,0.0949 0.22777,0.0996 0.26669,0.10578 0.3056,0.11102 0.34407,0.11627 0.38342,0.12195 0.42189,0.12763 0.4608,0.13288 0.49927,0.13855 0.53862,0.14381 0.5771,0.14948 0.616,0.15474 0.65492,0.16041 0.69382,0.1661 0.73274,0.17134 0.7712,0.17702 -0.0433,0.54287 -0.0192,0.53151 0.005,0.51926 0.0297,0.50747 0.0542,0.49566 0.0787,0.48387 0.10318,0.47206 0.12766,0.46026 0.15214,0.44802 0.17619,0.43666 0.20111,0.42441 0.22515,0.41262 0.25007,0.40082 0.27412,0.38901 0.29861,0.37721 0.32352,0.36541 0.34757,0.35317 0.18012,0.17047 0.20942,0.19188 0.23652,0.212 0.26319,0.23122 0.28854,0.24958 0.31172,0.26619 0.33445,0.28236 0.35588,0.29722 0.37555,0.31122 0.39391,0.32432 0.4114,0.33569 0.42757,0.34705 0.442,0.35623 0.45556,0.36541 0.46779,0.37284 0.47829,0.37984 0.48791,0.38508 0.49621,0.38989 0.50321,0.39294 0.50889,0.39601 0.51327,0.39688 0.51588,0.39776 0.51808,0.39688 0.51851,0.39513 0.51763,0.39251 0.51545,0.38858 0.51196,0.38377 0.50714,0.37808 0.50146,0.37109 0.49403,0.36323 0.48528,0.35405 0.47567,0.34443 0.46429,0.33306 0.45206,0.32083 0.43807,0.30771 0.4232,0.29373 0.40659,0.27843 0.37511,0.2439 0.39697,0.23734 0.41708,0.23122 0.43414,0.22554 0.4503,0.21986 0.4643,0.21461 0.47567,0.20937 0.48572,0.20456 0.49359,0.19975 0.49971,0.19582 0.50321,0.19145 0.50539,0.18751 0.50496,0.18402 0.50321,0.18095 0.49927,0.17746 0.49316,0.17484 0.48484,0.17222 0.47523,0.17003 0.46343,0.16784 0.44899,0.1661 0.43326,0.16434 0.41533,0.16304 0.39566,0.16216 0.3738,0.16129 0.34976,0.16085 0.32396,0.16041 0.29598,0.16042 0.32483,0.17789 0.34145,0.17353 0.35762,0.16872 0.37424,0.16391 0.39041,0.15954 0.40659,0.15429 0.4232,0.14992 0.43982,0.14512 0.45555,0.14031 0.47261,0.13593 0.48834,0.13069 0.5054,0.12632 0.52113,0.12152 0.53775,0.1167 0.55436,0.11233 0.57053,0.10753 9.54829,6.42178 0.73711,0.52408 0.70519,0.50091 0.67415,0.47861 0.64223,0.45633 0.6112,0.4336 0.57928,0.41087 0.5478,0.38857 0.51633,0.36629 0.48484,0.34312 0.45337,0.32126 0.42145,0.2981 0.39042,0.2758 0.3585,0.25352 0.32745,0.23078 0.29554,0.20806 0.26407,0.18577 0.23259,0.16347 0.2011,0.14074 0.16963,0.11802 0.188,0.13637 0.25313,0.19145 0.31216,0.24084 0.36462,0.28411 0.41096,0.32039 0.45162,0.35142 0.48616,0.3759 0.51413,0.3947 0.53644,0.40693 0.55261,0.41306 0.56267,0.41305 0.5666,0.40737 0.56441,0.3947 0.55611,0.37677 0.54168,0.3523 0.52114,0.3217 0.49446,0.28499 0.46212,0.24258 0.4232,0.1932 0.25925,0.1014 0.27019,0.094 0.28242,0.0861 0.29642,0.0795 0.31259,0.0734 0.32965,0.0673 0.34844,0.0625 0.36943,0.0581 0.39172,0.0538 0.41621,0.0507 0.44156,0.0476 0.46911,0.0455 0.49796,0.0433 0.52857,0.0424 0.56092,0.0415 0.59545,0.042 0.63087,0.042 0.66803,0.0428 0.70694,0.0446 0.74804,0.0468 0.56048,0.035 0.54256,0.0332 0.52638,0.0328 0.51107,0.0328 0.49709,0.0337 0.48354,0.035 0.47173,0.0371 0.4608,0.0398 0.45118,0.0433 0.442,0.0476 0.43501,0.052 0.42801,0.0581 0.42277,0.0638 0.41883,0.0708 0.41533,0.0782 0.41315,0.0865 0.41271,0.0957 0.41227,0.1049 0.41402,0.11277 0.41665,0.11846 0.41926,0.12282 0.42233,0.12632 0.42539,0.12894 0.42932,0.13157 0.43282,0.13244 0.4372,0.13287 0.44156,0.13244 0.44637,0.13157 0.45162,0.12938 0.45643,0.12632 0.46212,0.12282 0.46823,0.11802 0.47392,0.1132 0.48091,0.10709 0.48747,0.0997 0.49446,0.0922 0.26144,0.0581 0.27237,0.0817 0.2833,0.1049 0.2938,0.12588 0.30428,0.14599 0.31522,0.16478 0.32527,0.18227 0.33576,0.19844 0.34582,0.21287 0.35588,0.22641 0.36637,0.23822 0.37598,0.24914 0.38604,0.25833 0.3961,0.26662 0.40528,0.27275 0.41533,0.27886 0.42451,0.28237 0.43414,0.28498 0.44375,0.28674 0.45249,0.28629 0.46211,0.28543 0.4713,0.28236 0.48003,0.27843 0.48922,0.27318 0.49753,0.26663 0.5067,0.25832 0.51545,0.24914 0.52376,0.23822 0.5325,0.22641 0.54081,0.21331 0.54911,0.19844 0.55742,0.18226 0.56529,0.16479 0.5736,0.14643 0.58147,0.12588 0.22996,0.0463 0.24439,0.0511 0.25794,0.0551 0.27194,0.0594 0.28461,0.0634 0.29773,0.0673 0.3104,0.0713 0.32265,0.0743 0.33402,0.0778 0.34582,0.0813 0.35675,0.0839 0.36767,0.087 0.37818,0.09 0.38822,0.0922 0.39785,0.0944 0.40702,0.097 0.41621,0.0988 0.42495,0.10097 0.43282,0.10271 0.44113,0.10403 0.449,0.10534 0.45599,0.10709 0.46299,0.10752 0.46954,0.10884 0.47567,0.10927 0.48135,0.11015 0.48703,0.11059 0.49228,0.11058 0.49709,0.11102 0.50146,0.11059 0.50583,0.11058 0.50933,0.10971 0.51282,0.10971 0.51589,0.10884 0.51851,0.10796 0.52113,0.10665 0.52289,0.10534 0.52463,0.10447 0.52594,0.10228 0.52682,0.10097 0.52769,0.0992 0.52769,0.097 0.52769,0.0944 0.52726,0.0927 0.52638,0.0896 0.52506,0.087 0.45687,0.0957 0.4573,0.0944 0.45818,0.0927 0.45862,0.0918 0.45905,0.09 0.45905,0.0896 0.45949,0.0883 0.45949,0.0879 0.45905,0.087 0.45905,0.0861 0.45906,0.0857 0.45817,0.0852 0.45774,0.0848 0.45687,0.0848 0.45599,0.0848 0.45512,0.0844 0.45381,0.0848 0.45293,0.0848 0.45162,0.0848 0.44987,0.0852 0.44856,0.0861 0.44637,0.0865 0.44506,0.087 0.44288,0.0879 0.44069,0.0887 0.4385,0.0896 0.43632,0.0909 0.4337,0.0918 0.43107,0.0935 0.42845,0.0944 0.42582,0.0962 0.42277,0.0979 0.41927,0.0992 0.41664,0.10097 0.41271,0.10315 0.40965,0.1049 0.40615,0.10709 0.40222,0.10928 0.39828,0.11146 0.39435,0.11408 0.39041,0.11626 0.38648,0.11889 0.38167,0.12152 0.3773,0.12457 0.42145,0.13724 0.42757,0.14293 0.43326,0.14862 0.43894,0.15342 0.44375,0.15866 0.44856,0.16347 0.45337,0.16785 0.45774,0.17221 0.46168,0.17659 0.46561,0.18008 0.46911,0.18446 0.47216,0.18751 0.47523,0.19101 0.47742,0.19407 0.48047,0.19669 0.48179,0.19975 0.48397,0.20194 0.48572,0.20456 0.4866,0.20631 0.48747,0.20805 0.48834,0.20981 0.48878,0.21112 0.48878,0.21242 0.48835,0.21331 0.48834,0.21417 0.48747,0.21461 0.48616,0.21462 0.48528,0.21549 0.4831,0.21505 0.48179,0.21461 0.4796,0.21417 0.47697,0.21374 0.47392,0.21243 0.47129,0.21155 0.46824,0.20981 0.4643,0.20893 0.46036,0.20675 0.45687,0.20456 0.45162,0.20281 0.44768,0.20019 0.44244,0.19756 0.43675,0.19451 0.43195,0.19188 0.42539,0.18839 0.4197,0.18489 0.41359,0.1814 0.40659,0.17702 0.39959,0.17353 0.3926,0.16915 0.38473,0.16435 0.3773,0.15954 0.36899,0.15473 0.36068,0.14948 0.35238,0.14425 0.34319,0.13899 0.33402,0.13288 0.3244,0.12675 0.31478,0.12064 0.30472,0.11408 0.29423,0.10753 0.28374,0.10097 0.27281,0.0935 0.26187,0.0861 0.4149,0.14424 0.35413,0.14293 0.30166,0.14206 0.25838,0.14206 0.2234,0.14205 0.19674,0.14337 0.17881,0.14424 0.1692,0.14643 0.16875,0.14861 0.17663,0.15123 0.19324,0.15473 0.21772,0.15867 0.25182,0.1626 0.29336,0.1674 0.34451,0.17309 0.40352,0.17834 0.47174,0.18532 0.5478,0.19145 0.63305,0.19888 0.72662,0.20675 0.82891,0.21505 0.93953,0.22379 1.05888,0.23297 1.18654,0.24259 0.9216,0.18052 0.88444,0.16915 0.84816,0.1591 0.8123,0.14949 0.77689,0.13943 0.74192,0.13069 0.70781,0.12239 0.67415,0.11408 0.64137,0.10621 0.60857,0.0992 0.57665,0.0922 0.54562,0.0861 0.51414,0.0804 0.48441,0.0747 0.45468,0.0699 0.42539,0.0656 0.39653,0.0616 0.36899,0.0577 0.34145,0.0546 0.31434,0.052 0.28811,0.0498 0.26232,0.0476 0.23739,0.0468 0.21248,0.0459 0.18843,0.045 0.16526,0.0455 0.14208,0.0459 0.11936,0.0468 0.0979,0.0481 0.0769,0.0498 0.0555,0.0525 0.0358,0.0546 0.0201,0.1084 -0.038,0.11189 -0.0957,0.11583 -0.15389,0.11933 -0.21117,0.12326 -0.26931,0.12676 -0.32746,0.13069 -0.38473,0.13419 -0.44287,0.13856 -0.50102,0.14161 -0.5583,0.14599 -0.61644,0.14949 -0.67459,0.15298 -0.73186,0.15736 -0.79001,0.16085 -0.84815,0.16434 -0.90586,0.16829 -2.29745,0.29853 -1.15943,1.92365 9.03764,4.85568 0.1998,0.27056 0.30691,0.26706 0.33401,0.28062 0.28199,0.30946 0.14908,0.35536 -0.0625,0.41698 -0.355,0.49436 -0.72661,0.58876 -1.17867,0.69848 -7.76848,-2.69774 8.0356,7.61155 -1.93851,2.56049 -9.27198,-5.05674 4.77502,7.84191 -2.4662,2.29605 -6.38608,-6.3195 -1.61192,10.44086 -3.55482,1.64959 -2.98865,-11.95321 -3.19063,-6.82915 -0.76771,-6.38769 -13.51274,-5.37582 -0.72793,-0.16784 -0.70169,-0.16129 -0.67503,-0.15386 -0.64836,-0.14642 -0.62212,-0.13987 -0.59546,-0.13244 -0.56879,-0.12501 -0.54255,-0.11845 -0.51589,-0.11103 -0.48965,-0.10402 -0.46299,-0.097 -0.43632,-0.0896 -0.41009,-0.0831 -0.38341,-0.0756 -0.35719,-0.0682 -0.33052,-0.0612 -0.30385,-0.0546 -0.27761,-0.0468 -0.25095,-0.0402 -0.22428,-0.0328 -0.19805,-0.0258 -0.17138,-0.0188 -0.14515,-0.0114 -0.29423,-0.0188 -0.33139,-0.0236 -0.36943,-0.028 -0.40659,-0.0323 -0.44462,-0.0372 -0.48179,-0.042 -0.51938,-0.0463 -0.55655,-0.0507 -0.59458,-0.0555 -0.63218,-0.0599 -0.66934,-0.0647 -0.6571,-0.13813 -0.64311,-0.13506 -0.62956,-0.13113 -0.61557,-0.12807 -0.60158,-0.12413 -0.58802,-0.12064 -0.57403,-0.11714 -0.56048,-0.11364 -0.54649,-0.11015 -0.5325,-0.10665 -0.51852,-0.10316 -0.50495,-0.0992 -0.49097,-0.0962 -0.47741,-0.0922 -0.46343,-0.0892 -0.44943,-0.0852 -0.43588,-0.0817 -0.42189,-0.0782 -0.4079,-0.0752 -0.39435,-0.0713 -0.38036,-0.0677 -0.3668,-0.0638 -0.35238,-0.0608 -0.33926,-0.0573 -0.32484,-0.0533 -0.31128,-0.0503 -0.29729,-0.0468 -0.28374,-0.0428 -0.26975,-0.0393 -0.25575,-0.0358 -0.24221,-0.0328 -0.22821,-0.0288 -0.21423,-0.0254 -0.31784,-0.0398 -0.33008,-0.0485 -0.34319,-0.0568 -0.35544,-0.066 -0.36855,-0.0743 -0.38123,-0.083 -0.39348,-0.0918 -0.40659,-0.10054 -0.41926,-0.10927 -0.43195,-0.11758 -0.44463,-0.12676 -0.4573,-0.13506 -0.46998,-0.1438 -0.48266,-0.15255 -0.49534,-0.16128 -0.50802,-0.17003 -0.52113,-0.17834 -0.53338,-0.18751 -0.54649,-0.19582 -0.55873,-0.20456 -0.57185,-0.2133 -0.58409,-0.22161 -0.49927,-0.42136 -0.49141,-0.39382 -0.4844,-0.36628 -0.47742,-0.33919 -0.46954,-0.31165 -0.46299,-0.28454 -0.45512,-0.25701 -0.44812,-0.22992 -0.44069,-0.20237 -0.43326,-0.17528 -0.42626,-0.14817 -0.41883,-0.1202 -0.41184,-0.0935 -0.46779,-0.0997 -0.44375,-0.10752 -0.42845,-0.10796 -0.42058,-0.10359 -0.42102,-0.0918 -0.42932,-0.0747 -0.44594,-0.0507 -0.47042,-0.0205 -0.50277,0.0153 -0.54387,0.0577 -0.59283,0.10665 -0.72705,0.20325 -0.66541,0.27187 -0.6042,0.3217 -0.54255,0.35186 -0.48004,0.36323 -0.41752,0.35448 -0.35456,0.32739 -0.29117,0.28017 -0.22734,0.21418 -0.28156,0.31995 -0.18449,0.36454 -0.15608,0.45982 -0.1963,0.60538 -0.30385,0.80075 -0.17444,0.45021 -0.15957,0.47862 -0.14515,0.50746 -0.13028,0.53632 -0.11586,0.56516 -0.10099,0.59401 -0.0866,0.62242 -0.68989,0.16784 -0.64749,0.16173 -0.60507,0.15561 -0.5631,0.14948 -0.52026,0.14337 -0.47829,0.13725 -0.43588,0.13112 -0.39348,0.12545 -0.3515,0.11889 -0.30866,0.11277 -0.26669,0.10709 -0.18711,0.10097 -0.21029,0.15079 -0.23303,0.1967 -0.25619,0.23821 -0.27937,0.27581 -0.30254,0.30946 -0.32614,0.33831 -0.34932,0.36366 -0.37336,0.38421 -0.39697,0.40125 -0.42058,0.41393 -0.44419,0.42223 -0.46867,0.42617 -0.49271,0.4266 -0.5172,0.42267 -0.54125,0.41437 -0.56572,0.40212 -0.59065,0.38508 -0.61513,0.36498 -0.64005,0.34005 -0.66453,0.31122 -0.68989,0.27755 -0.71525,0.24084 -0.3738,0.11146 -0.37861,0.10796 -0.38254,0.10534 -0.38692,0.10228 -0.39172,0.0992 -0.39566,0.0962 -0.40003,0.0931 -0.40441,0.09 -0.40877,0.087 -0.41315,0.0839 -0.41752,0.0809 -0.42189,0.0782 -0.42626,0.0747 -0.4302,0.0717 -0.43501,0.0691 -0.43937,0.0656 -0.44332,0.0629 -0.44812,0.0599 -0.45206,0.0564 -0.45686,0.0538 -0.4608,0.0507 -0.46518,0.0476 -0.46954,0.0446 -0.47436,0.0415 -0.47828,0.0385 -0.48266,0.0354 -0.48704,0.0324 -0.4914,0.0293 -0.49534,0.0267 -0.50015,0.0232 3.48311,8.77073 9.05601,8.60681 0.0984,0.8672 0.0844,0.84752 0.0713,0.8283 0.0582,0.80949 0.0442,0.79114 0.031,0.77235 0.0179,0.75486 0.004,0.73694 -0.009,0.71946 -0.0223,0.70241 -0.0354,0.68536 -0.0485,0.66919 -0.0616,0.65258 -0.0748,0.63685 -0.0879,0.62111 -0.10056,0.60537 -0.1141,0.59095 -0.12679,0.57566 -0.1399,0.56122 -0.15302,0.54725 -0.16569,0.53325 -0.17838,0.51971 -0.19149,0.50615 -0.20417,0.49348 -0.21684,0.48036 -0.22997,0.46813 -0.2422,0.45545 -0.25532,0.44409 -0.26757,0.43229 -0.28024,0.42136 -0.29291,0.40999 -0.3056,0.3995 -0.31784,0.38902 -0.33052,0.37852 -0.34276,0.36935 -0.35544,0.35929 -0.36767,0.35055 -0.37992,0.34093 -0.39217,0.33263 -0.40484,0.32432 -0.41664,0.31646 -0.42932,0.30815 -0.44113,0.30072 -0.45337,0.29373 -0.46561,0.28717 -0.47785,0.27974 -0.48966,0.27405 -0.50189,0.26794 -0.51371,0.26182 -0.52594,0.25658 -0.53731,0.25176 -0.54999,0.24652 -0.56135,0.24172 -0.57316,0.23778 -0.58496,0.23384 -0.59721,0.22991 -0.60857,0.22685 -0.62038,0.22336 -0.63218,0.22073 -0.64355,0.21811 -0.65535,0.21592 -0.66672,0.21374 -0.67852,0.21243 -10.91189,-7.35629 -3.10538,0.26838 -0.37817,-0.74918 -0.39435,-0.67531 -0.40965,-0.60188 -0.42582,-0.52845 -0.44113,-0.45457 -0.4573,-0.38159 -0.47304,-0.30727 -0.48879,-0.23429 -0.50452,-0.16041 -0.52025,-0.087 -0.53644,-0.0131 -0.55174,0.0599 -0.47654,0.11889 -0.39609,0.17658 -0.31478,0.23429 -0.23434,0.29197 -0.15345,0.35012 -0.0726,0.40824 0.008,0.46551 0.0892,0.52364 0.16963,0.58177 0.25008,0.63947 0.33139,0.69716 0.41183,0.75486 0.49272,0.813 -0.59546,0.53238 -0.58277,0.52014 -0.57054,0.50878 -0.55786,0.49653 -0.54561,0.48518 -0.53294,0.47293 -0.5207,0.46157 -0.50802,0.44934 -0.49577,0.43753 -0.48354,0.42616 -0.47085,0.41393 -0.45818,0.40213 -0.44594,0.39032 -0.43326,0.37853 -0.42101,0.36672 -0.40878,0.35492 -0.39609,0.34312 -0.38342,0.33132 -0.37118,0.31951 -0.35893,0.30771 -0.34626,0.29592 -0.33358,0.28367 -0.32133,0.27231 -0.3091,0.26051 -0.29642,0.24827 -0.28373,0.2369 -0.2715,0.22467 -0.3174,0.25963 -0.32877,0.26532 -0.34014,0.27012 -0.3515,0.27581 -0.36287,0.28105 -0.37424,0.2863 -0.3856,0.29154 -0.39741,0.29679 -0.40877,0.30246 -0.42015,0.30728 -0.43151,0.31296 -0.44287,0.3182 -0.45424,0.32345 -0.46561,0.3287 -0.47742,0.33438 -0.48878,0.33918 -0.49971,0.34487 -0.51152,0.34967 -0.52332,0.35536 -0.53425,0.36104 -0.54561,0.36585 -0.55742,0.37109 -0.56835,0.37677 -1.0379,5.9152 -1.97348,5.90513 0.3174,0.63685 0.31303,0.6281 0.30778,0.6198 0.30341,0.61106 0.29904,0.60232 6.01271,12.58742 -16.91891,1.24485 -3.05554,-4.80891 -2.87192,-9.71397 -0.0962,-0.66832 -0.32178,-0.63116 -0.54824,-0.59401 -0.77426,-0.55642 -0.24221,-0.16391 -0.25444,-0.20456 -0.26625,-0.24521 -0.27806,-0.28586 -0.2903,-0.32651 -0.3021,-0.36716 -0.31346,-0.40781 -0.32615,-0.44889 -0.33751,-0.48911 -0.34932,-0.52976 -0.36156,-0.57085 -0.37336,-0.61105 -0.38516,-0.65215 -0.39741,-0.69235 -0.40922,-0.73301 -0.0953,-0.64602 -0.094,-0.6351 -0.0927,-0.62505 -0.0909,-0.61455 -0.0892,-0.60406 -0.0879,-0.59401 -0.0866,-0.58309 -0.0848,-0.57303 -0.0831,-0.56254 -0.0817,-0.55205 -0.0805,-0.54199 -0.0787,-0.53151 -0.077,-0.52102 -0.0756,-0.51052 -0.0739,-0.50004 -0.0726,-0.48998 -0.0713,-0.47905 -0.0695,-0.46901 -0.0678,-0.45894 -0.0665,-0.44803 -0.0647,-0.43796 -0.0634,-0.42748 -0.0621,-0.41699 -0.0603,-0.4065 -0.0586,-0.39644 -0.0573,-0.38552 -0.0555,-0.37546 -0.0542,-0.36497 -0.0529,-0.35492 -0.0512,-0.344 -0.0494,-0.33394 -0.0481,-0.32345 -0.0464,-0.31296 -0.045,-0.3029 -0.0433,-0.29242 -0.042,-0.28149 -0.0407,-0.27187 -0.0389,-0.26094 -0.0372,-0.25046 -0.0359,-0.2404 -0.0341,-0.22991 -0.0328,-0.21942 -0.031,-0.20893 -0.077,-0.48561 -0.0857,-0.48168 -0.094,-0.47818 -0.10231,-0.47469 -0.11061,-0.47075 -0.11935,-0.46769 -0.12766,-0.46375 -0.1364,-0.46026 -0.14472,-0.45633 -0.15301,-0.45327 -0.16133,-0.44933 -0.1705,-0.44583 -0.17838,-0.44234 -0.18711,-0.43841 -0.19543,-0.43491 -0.20417,-0.43141 -0.21247,-0.42791 -0.22079,-0.42398 -0.0586,-0.51272 -0.0586,-0.50702 -0.0595,-0.50179 -0.0595,-0.49654 -0.0603,-0.49085 -0.0608,-0.48605 -0.0612,-0.48037 -0.0616,-0.47512 -0.0625,-0.46987 -0.0625,-0.46463 -0.0634,-0.45895 -0.0634,-0.45371 -0.0643,-0.44846 -0.0647,-0.44321 -0.0651,-0.43797 -0.0656,-0.43228 -0.066,-0.42704 -0.0665,-0.4218 -0.0673,-0.41655 -0.0673,-0.4113 -0.0682,-0.40563 -0.0686,-0.40038 -0.0691,-0.39513 -0.0695,-0.38989 -0.07,-0.3842 -0.13159,-0.61062 -0.16482,-0.58702 -0.19368,-0.56472 -0.21947,-0.54375 -0.24308,-0.52364 -0.26231,-0.50528 -0.27893,-0.48779 -0.29249,-0.47119 -0.30253,-0.45633 -0.30953,-0.4419 -0.31347,-0.42923 -0.31434,-0.41786 -0.31128,-0.40693 -0.30604,-0.39819 -0.29685,-0.38946 -0.28505,-0.38289 -0.26931,-0.37721 -0.25139,-0.37241 -0.22952,-0.3689 -0.20461,-0.36672 -0.17663,-0.36585 -0.14558,-0.36585 -0.11149,-0.36716 -0.0826,-0.3217 -0.0892,-0.33744 -0.0966,-0.3536 -0.10318,-0.36979 -0.11017,-0.38551 -0.11717,-0.40169 -0.12416,-0.41743 -0.13072,-0.43316 -0.13816,-0.44933 -0.14471,-0.4655 -0.1517,-0.48124 -0.15827,-0.49742 -0.16569,-0.51315 -0.17226,-0.52932 -0.17924,-0.54505 -0.18581,-0.56123 -0.19324,-0.5774 -0.1998,-0.5927 -0.56092,-6.16565 -6.12506,-25.31604 -9.66983,-0.25395 -2.28127,-3.1073 -9.33013,-5.07684 0.80488,0.32607 0.81317,0.33219 0.73624,0.30247 0.65928,0.27362 0.58147,0.24433 0.50452,0.21505 0.42714,0.18621 0.35019,0.15648 0.27237,0.12763 0.19542,0.0979 0.11848,0.0691 0.0407,0.0398 0.74279,-13.85587 -6.31874,-19.85237 1.63947,17.3959 -1.65215,13.89521 -0.99986,-0.54418 -1.59138,5.77445 -8.61444,3.0885 -6.55658,2.04167 -6.47745,6.59531 -5.59125,1.20113 0.50845,-0.32607 0.51458,-0.31296 0.32571,-0.17615 0.13771,-0.0393 -1.8502,-12.23425 -0.72136,13.80036 0.27805,-0.18314 0.51152,6.00611 -1.57302,1.16398 -1.54548,1.14387 -1.51749,1.12333 -1.48952,1.10323 -1.46197,1.08312 -1.43443,1.06301 -1.40645,1.0429 -1.37847,1.0228 -1.35092,1.00226 -1.32295,0.98259 -1.29539,0.96204 -1.26742,0.94194 -1.23944,0.92183 -1.21234,0.90172 -1.18392,0.88162 -1.15637,0.86108 -1.12883,0.8414 -1.10042,0.82087 -1.0733,0.80075 -1.04533,0.78065 -1.01735,0.76054 -0.9898,0.74044 -0.96183,0.7199 -0.93428,0.70022 -0.9063,0.67968 -0.87832,0.65958 -0.85077,0.63946 -0.82324,0.61937 -0.79525,0.59925 -0.76727,0.57871 -0.73973,0.55905 -0.71175,0.5385 -0.68421,0.51839 -0.65622,0.49829 -0.62869,0.47818 -0.6007,0.45807 -0.57316,0.43753 -0.54518,0.41786 -0.5172,0.39732 -0.48965,0.37721 -0.46212,0.35711 -0.43413,0.337 -0.40615,0.31689 -0.37861,0.29679 -0.35063,0.27624 -0.32308,0.25658 -0.29511,0.23603 -0.26756,0.21592 -0.23958,0.19582 -0.2116,0.17571 -0.18406,0.15517 -0.15651,0.1355 -0.12854,0.11495 -0.10055,0.0948 -0.073,0.0748 -0.045,0.0546 -0.0175,0.0345 0.0105,0.0144 0.038,-0.006 0.066,-0.0258 0.094,-0.0463 0.12154,-0.0664 0.14908,-0.0865 0.36855,-0.2168 0.31391,-0.18271 0.25969,-0.14817 0.20592,-0.11365 0.15126,-0.0791 0.0971,-0.045 0.0428,-0.0105 -0.0114,0.024 -0.066,0.0586 -0.11979,0.0931 -0.174,0.12719 -0.22865,0.16173 -0.28243,0.19625 -0.33707,0.23079 -0.39085,0.26488 -0.4455,0.29941 -0.49971,0.33394 -0.55393,0.36847 -0.60813,0.403 -0.66235,0.43709 -0.71656,0.47163 -0.77077,0.50615 -0.82542,0.54069 -0.87919,0.57477 -0.93384,0.60975 -0.98762,0.64384 -5.50513,0.0179 -3.23173,-2.77467 7.39424,-0.49086 0.19936,-8.41493 -13.23994,-15.36385 -4.66825,2.86122 0.89108,0.0594 0.81432,0.0555 0.7371,0.0511 0.65973,0.0468 0.58321,0.0428 0.50627,0.0385 0.42889,0.0345 0.35194,0.0306 0.27499,0.0262 0.19849,0.0219 0.12066,0.0179 0.0442,0.0136 8.15014,11.64506 -9.53604,13.24001 2.22138,-1.52109 -9.1817,7.62816 0.24294,11.14589 10.54325,14.24315 5.25156,7.09709 0.38691,6.6294 -5.84482,3.92729 -18.88299,-5.75817 -29.21174,-21.81405 -1.94545,-5.0869 12.87939,-14.83453 3.48858,1.55344 17.22075,-16.07501 9.83885,-9.5553 -3.58175,-4.79143 1.84246,-4.12791 7.7617,-5.23202 13.98929,-10.94963 15.88277,-12.53192 17.54453,-14.42978 4.05321,-7.14649 6.77255,-2.08275 0.76247,-0.87375 0.75109,-0.86108 0.73973,-0.84883 0.7288,-0.83704 0.717,-0.82436 0.70606,-0.81212 0.69427,-0.80031 0.68333,-0.78765 0.67196,-0.7754 0.6606,-0.76361 0.64923,-0.75092 0.6383,-0.73869 0.6265,-0.72645 0.61557,-0.71465 0.60376,-0.70197 0.59283,-0.68974 0.58147,-0.67793 0.5701,-0.66526 0.55873,-0.65301 0.5478,-0.64078 0.536,-0.62854 0.52507,-0.61674 0.5137,-0.60407 0.5019,-0.59182 0.49096,-0.57959 0.48004,-0.56735 0.46824,-0.55511 0.45686,-0.5433 0.44594,-0.53064 0.43413,-0.51839 0.4232,-0.50615 0.41184,-0.49392 0.40047,-0.48168 0.3891,-0.46944 0.37773,-0.4572 0.36681,-0.44496 0.355,-0.43272 0.34407,-0.42049 0.3327,-0.40824 0.32134,-0.39601 0.30997,-0.38377 0.2986,-0.37153 0.28724,-0.35929 0.2763,-0.34705 0.2645,-0.33481 0.25357,-0.32258 0.24221,-0.31034 0.23084,-0.29809 0.21947,-0.28586 0.2081,-0.27362 0.19674,-0.26139 0.1858,-0.24914 0.17444,-0.23647 0.16264,-0.22466 0.15171,-0.21243 0.14033,-0.20019 0.12898,-0.18795 0.11804,-0.17571 0.10624,-0.16304 0.0953,-0.15123 0.0835,-0.139 0.0726,-0.12676 0.0612,-0.11408 0.29991,-0.59532 0.28374,-0.5809 0.26669,-0.5656 0.25007,-0.5503 0.23303,-0.53325 0.21641,-0.51621 0.19936,-0.49785 0.18231,-0.47949 0.16525,-0.45982 0.14778,-0.43928 0.13115,-0.4183 0.11324,-0.39688 0.0962,-0.37416 0.0787,-0.35055 0.0612,-0.32694 0.0437,-0.30203 0.0258,-0.27668 0.0599,-0.94413 0.056,-0.9345 0.0525,-0.92489 0.0485,-0.91484 0.0455,-0.90566 0.042,-0.89561 0.0389,-0.88599 0.0358,-0.87637 0.0324,-0.86676 0.0297,-0.85714 0.0267,-0.84752 0.0241,-0.83747 0.021,-0.8283 0.0188,-0.81867 0.0157,-0.80863 0.014,-0.79944 0.0114,-0.78939 0.009,-0.78022 0.007,-0.77015 0.005,-0.76099 0.003,-0.75092 8.8e-4,-0.74175 -8.8e-4,-0.7317 -0.002,-0.72251 -0.004,-0.7129 -0.006,-0.70285 -0.007,-0.69367 -0.008,-0.68405 -0.01,-0.67444 -0.0105,-0.66481 -0.0118,-0.65565 -0.0127,-0.64558 -0.0136,-0.63641 -0.0144,-0.62636 -0.0149,-0.61717 -0.0157,-0.60756 -0.0162,-0.59839 -0.0166,-0.58832 -0.0171,-0.57915 -0.017,-0.56954 -0.0171,-0.55991 -0.017,-0.55031 -0.0175,-0.54112 -0.0171,-0.5315 -0.0166,-0.52189 -0.0166,-0.51228 -0.0162,-0.50309 -0.0153,-0.49348 -0.0153,-0.48386 -0.014,-0.47469 -0.0136,-0.46507 -0.0127,-0.45545 -0.0118,-0.44627 -0.0105,-0.43666 -0.009,-0.42704 -0.008,-0.41786 -0.007,-0.40825 -0.005,-0.39906 -0.004,-0.38945 -0.002,-0.37984 -4.4e-4,-0.37065 8.8e-4,-0.36104 0.003,-0.35186 0.007,-0.60713 0.006,-0.60537 0.006,-0.6045 0.006,-0.60232 0.005,-0.60057 0.005,-0.59794 0.004,-0.59532 0.003,-0.59183 0.004,-0.58876 0.003,-0.58527 0.002,-0.5809 0.002,-0.57653 0.002,-0.57171 0.001,-0.56692 10e-4,-0.56166 4.3e-4,-0.55598 4.4e-4,-0.54987 v -0.54331 -0.53718 l -4.4e-4,-0.52976 -8.7e-4,-0.52277 -8.8e-4,-0.51533 -8.7e-4,-0.50703 -10e-4,-0.49872 -0.002,-0.49042 -0.002,-0.48168 -0.002,-0.47206 -0.002,-0.46245 -0.002,-0.45283 -0.003,-0.44277 -0.002,-0.43229 -0.003,-0.42092 -0.003,-0.41043 -0.003,-0.39863 -0.003,-0.38639 -0.003,-0.37503 -0.003,-0.36191 -0.003,-0.34968 -0.003,-0.33612 -0.003,-0.32301 -0.003,-0.30903 -0.003,-0.29504 -0.003,-0.28105 -0.003,-0.26575 -0.003,-0.25089 -0.003,-0.2356 -0.002,-0.21986 -0.003,-0.20368 -0.002,-0.18751 -0.002,-0.17091 -0.002,-0.15386 -0.002,-0.13681 -10e-4,-0.11889 -0.002,-0.10096 -0.002,-0.54593 0.009,-0.50966 0.0184,-0.47599 0.0271,-0.44584 0.0345,-0.4183 0.0402,-0.39382 0.0459,-0.3724 0.0494,-0.35405 0.0516,-0.33831 0.0538,-0.32607 0.0533,-0.31646 0.0529,-0.30946 0.0503,-0.30596 0.0472,-0.30553 0.0428,-0.30772 0.0367,-0.31339 0.0302,-0.32127 0.0219,-0.33263 0.0127,-0.34661 0.002,-0.3641 -0.01,-0.38421 -0.0223,-0.40737 -0.0367,-0.43359 -0.0516,-0.46245 -0.0682,-0.49479 -0.0857,-0.52976 -0.10493,-0.56778 -0.1246,-0.60887 -0.14602,-0.65259 -0.16788,-0.69978 -0.19193,-0.74962 -0.21685,-0.80294 -0.11586,-0.42529 -0.11541,-0.43316 -0.11455,-0.44059 -0.11367,-0.4489 -0.11279,-0.45632 -0.11236,-0.46376 -0.11105,-0.47163 -0.11061,-0.47949 -0.10973,-0.48736 -0.10887,-0.49479 -0.10798,-0.50265 -0.10755,-0.51009 -0.10624,-0.51796 -0.1058,-0.52582 -0.10493,-0.5337 -0.10405,-0.54112 -0.10318,-0.54899 -0.10274,-0.55642 -0.10142,-0.56429 -0.101,-0.57215 -0.10011,-0.57959 -0.0993,-0.58745 -0.0984,-0.59532 -0.0979,-0.60276 -0.0966,-0.61062 -0.0962,-0.61848 -0.0953,-0.62592 -0.0944,-0.63379 -0.0936,-0.64122 -0.0931,-0.64952 -0.0918,-0.65695 -0.0914,-0.66438 -0.0905,-0.67225 -0.0896,-0.68012 -0.0892,-0.68799 -0.0879,-0.69541 -0.0874,-0.70329 -0.0861,-0.71071 -0.0857,-0.71858 -0.0853,-0.72645 -0.0839,-0.73388 -0.0831,-0.74175 -0.0826,-0.74962 -0.0818,-0.75705 -0.0809,-0.76491 -0.08,-0.77278 -0.0791,-0.78021 -0.0787,-0.78808 -0.0774,-0.79595 -0.0769,-0.80338 -0.0761,-0.81125 -0.0752,-0.81911 -0.0748,-0.82655 -0.0734,-0.83441 -0.073,-0.84184 -0.0717,-0.85015 -0.0713,-0.857144 -0.0708,-0.86544 -0.0695,-0.87288 -0.0686,-0.88075 -0.0682,-0.88817 -0.0673,-0.89604 -0.0665,-0.90391 -2.05612,-11.68234 -4.51795,-9.677522 -0.14646,-0.05188 -0.16744,-0.110061 -0.18887,-0.168281 -0.20941,-0.226458 -0.2304,-0.284679 -0.25139,-0.342857 -0.27281,-0.401033 -0.29335,-0.459255 -0.31478,-0.517432 -0.33533,-0.575609 -0.35675,-0.633829 -0.37773,-0.691964 -0.39829,-0.750228 -0.4197,-0.808361 -0.44069,-0.866582 m 99.7927,328.327305 5.73028,9.3031 0.36681,0.47163 0.36636,0.46856 0.36506,0.46507 0.36199,0.46113 0.3585,0.45633 0.35325,0.45108 0.34714,0.4454 0.33969,0.4384 0.3314,0.43185 0.32221,0.42355 0.31128,0.41567 0.29904,0.4065 0.28636,0.39688 0.27237,0.38683 0.25707,0.3759 0.24045,0.3641 0.22297,0.35273 0.20417,0.33963 0.1845,0.3265 0.16351,0.31253 0.14121,0.29809 0.22078,0.46813 0.23958,0.45895 0.25838,0.45021 0.27762,0.44146 0.29686,0.43273 0.31565,0.42398 0.33489,0.4148 0.35369,0.40606 0.37249,0.39732 0.39172,0.38814 0.41096,0.37939 0.42976,0.37066 0.449,0.36191 0.46779,0.35317 0.48704,0.344 0.50583,0.33525 0.52463,0.32651 0.54387,0.31733 0.5631,0.30902 0.5819,0.29985 0.60114,0.29067 0.61994,0.28236 0.63918,0.27318 0.65797,0.26445 9.56272,0.91396 0.56572,0.37503 0.51589,0.34748 0.47392,0.3287 0.44112,0.3182 0.41665,0.31646 0.4009,0.32345 0.39348,0.33875 0.39478,0.36366 0.40441,0.39644 0.42276,0.43797 0.45031,0.48824 0.48528,0.54724 0.52988,0.61455 0.58234,0.69105 -0.73492,-0.36279 -0.71087,-0.3287 -0.68727,-0.29547 -0.66497,-0.26357 -0.64355,-0.23253 -0.62212,-0.20282 -0.60158,-0.17396 -0.5819,-0.14642 -0.56267,-0.12021 -0.54431,-0.0953 -0.52681,-0.0708 -0.50933,-0.0485 -0.49316,-0.0262 -0.47785,-0.006 -0.46255,0.0135 -0.44812,0.0319 -0.43457,0.049 -0.42145,0.0647 -0.40921,0.08 -0.39785,0.0931 -0.38691,0.10577 -0.37643,0.11758 -0.36724,0.1272 -0.35806,0.13637 -0.34975,0.14468 -0.34276,0.1508 -0.33577,0.15691 -0.3292,0.16129 -0.3244,0.16435 -0.31915,0.16653 -0.31522,0.16784 -0.31171,0.16741 -0.3091,0.1661 -0.30691,0.16347 -0.3056,0.16041 -0.30516,0.15517 -0.30516,0.14949 -0.30559,0.14205 -0.30691,0.13419 -0.3091,0.12457 -0.31172,0.11452 -0.31521,0.10228 -6.3358,-0.10621 -6.76074,0.5739 -8.14446,-0.9568 6.38301,-3.82588 -11.72551,-14.72963 -9.66938,-13.78463 m -27.04474,-154.44056 23.11394,6.42572 30.43734,-4.42864 -17.14232,6.03496 23.5966,0.7671 -36.2319,1.86683 -0.001,-0.0162 -0.0166,-0.0223 -0.0324,-0.0288 -0.0472,-0.0354 -0.063,-0.0411 -0.0783,-0.0481 -0.094,-0.0542 -0.10886,-0.0603 -0.1246,-0.0669 -0.13991,-0.073 -0.1552,-0.0796 -0.1705,-0.0857 -0.18625,-0.0922 -0.20111,-0.0988 -0.21684,-0.1049 -0.23215,-0.11102 -0.24789,-0.11758 -0.26275,-0.1237 -0.2785,-0.13025 -0.29379,-0.13681 -0.30909,-0.14293 -0.3244,-0.14905 -0.34014,-0.15561 -0.355,-0.16216 -0.37074,-0.16828 -0.38604,-0.1744 -0.40134,-0.18096 -0.41708,-0.18751 -0.43195,-0.19363 -0.44768,-0.19975 -0.46299,-0.20631 -0.47829,-0.21287 -0.49403,-0.21898 -0.50933,-0.2251 -0.52419,-0.23166 -0.53993,-0.23822 -0.55567,-0.24434 -0.57054,-0.25045 -0.58628,-0.25701 -0.60114,-0.26357 -0.61687,-0.26969 -0.63262,-0.27624 -0.64748,-0.28236 -0.66323,-0.28848 -0.67808,-0.29548 -0.69383,-0.30116 -0.70912,-0.30771 -0.72487,-0.31427 -0.73973,-0.32039 -0.75547,-0.32695 -0.77077,-0.33306 -0.78607,-0.33919 -0.80181,-0.34618 -0.81668,-0.35186 -0.83241,-0.35841 -0.84772,-0.36498 m 105.12689,41.03 -11.15978,-2.89443 -2.43472,-1.74269 6.46957,8.2803 5.64416,-1.05383 0.0402,-0.14424 0.16832,-0.33132 0.29598,-0.51796 0.42408,-0.70459 0.55217,-0.89124 m 0.75897,12.73779 -8.23278,-2.80789 -18.91732,-15.95261 16.97488,20.13298 0.0481,-0.0179 0.0839,-0.0223 0.11979,-0.0254 0.15564,-0.0297 0.19105,-0.0332 0.22734,-0.0371 0.26319,-0.0406 0.29904,-0.0446 0.33489,-0.0485 0.37074,-0.052 0.40659,-0.0559 0.44244,-0.0599 0.47829,-0.0634 0.51414,-0.0673 0.54998,-0.0708 0.58584,-0.0747 0.62169,-0.0787 0.65754,-0.0822 0.69339,-0.0861 0.72923,-0.09 0.76465,-0.0935 0.80094,-0.0975 0.83679,-0.10097 m -19.34665,8.00101 -25.40438,-2.21651 -28.35588,16.75687 14.85318,-4.89851 13.78556,-10.75732 0.0118,-0.008 0.0262,-0.007 0.0402,-0.006 0.0547,-0.006 0.0691,-0.004 0.0835,-0.003 0.0975,-0.003 0.11192,-0.001 0.12591,-8.7e-4 0.14034,4.3e-4 0.15477,8.8e-4 0.16875,0.002 0.18319,0.003 0.19761,0.004 0.2116,0.005 0.22603,0.006 0.24045,0.007 0.25445,0.008 0.26887,0.009 0.28287,0.01 0.29729,0.0105 0.31172,0.0114 0.32614,0.0122 0.34014,0.0136 0.35412,0.014 0.36899,0.0153 0.38298,0.0162 0.39698,0.0171 0.41183,0.0179 0.42583,0.0188 0.43981,0.0201 0.45425,0.0205 0.46867,0.0219 0.48309,0.0223 0.49709,0.0236 0.51152,0.0245 0.5255,0.0258 0.53994,0.0262 0.55436,0.0271 0.56835,0.0284 0.58277,0.0293 0.59721,0.0302 0.61119,0.031 0.62563,0.0319 0.63961,0.0328 0.65448,0.0337 0.66803,0.035 0.68289,0.0354 0.69689,0.0367 0.71131,0.0376 0.7253,0.0385 0.73973,0.0393 0.75416,0.0407 0.76815,0.0411 0.78257,0.0424 0.797,0.0433 0.81099,0.0437 0.82542,0.045 0.83985,0.0463 m -38.40518,12.84444 -4.06327,5.64157 -4.16732,23.13844 -3.38037,4.94746 -3.11412,0.56036 6.49449,0.18664 2.62534,-5.93487 1.0379,-1.97347 0.006,-0.0127 0.007,-0.0258 0.0101,-0.0398 0.0122,-0.0533 0.014,-0.0669 0.0166,-0.0809 0.0192,-0.094 0.021,-0.10796 0.0232,-0.12152 0.0258,-0.1355 0.0276,-0.14861 0.0302,-0.1626 0.0323,-0.17615 0.0345,-0.18969 0.0367,-0.20325 0.0389,-0.21724 0.0411,-0.23078 0.0437,-0.24434 0.0455,-0.25789 0.0481,-0.27143 0.0498,-0.28542 0.0525,-0.29897 0.0547,-0.31253 0.0568,-0.32607 0.0595,-0.33962 0.0612,-0.35361 0.0634,-0.36716 0.066,-0.38071 0.0682,-0.39426 0.0704,-0.4078 0.0726,-0.4218 0.0748,-0.43535 0.0769,-0.44889 0.0791,-0.46288 0.0813,-0.476 0.0839,-0.48998 0.0861,-0.50353 0.0879,-0.51709 0.0905,-0.53063 0.0927,-0.54462 0.0949,-0.55817 0.0975,-0.57171 0.0993,-0.58527 0.10143,-0.59882 0.10405,-0.61281 0.10624,-0.62635 0.10798,-0.63991 0.11061,-0.65345 0.1128,-0.66701 0.11542,-0.68099 0.11716,-0.69454 0.11936,-0.70809 0.12197,-0.72165 0.12417,-0.73563 0.12591,-0.74917 0.12853,-0.76273 0.13072,-0.77628 0.13291,-0.78983 0.13553,-0.80382 0.13728,-0.81692 0.13946,-0.83092 0.14209,-0.8449 m 152.09842,-18.26703 -7.24079,-1.01668 0.34539,5.05586 1.27223,-3.36125 0.0586,-0.0153 0.13291,-0.0232 0.20723,-0.0302 0.28199,-0.038 0.35674,-0.0455 0.43151,-0.0525 0.50584,-0.0603 0.58059,-0.0677 0.65491,-0.0752 0.72968,-0.0826 0.80443,-0.09 0.87876,-0.0975 m -199.65317,-97.29797 -17.19784,12.07078 19.19756,-10.23804 -1.99972,-1.83274 m 4.41477,3.52254 -2.3722,14.83103 4.11529,-12.40123 -1.74309,-2.4298 m -180.37498,150.23642 3.85955,-0.42835 21.14158,15.15229 6.85195,1.25009 23.28269,11.37187 -6.32356,3.64187 -17.90727,-5.2696 -29.31893,-22.1847 -0.15865,-0.32695 -0.18129,-0.38595 -0.20393,-0.4454 -0.22658,-0.50485 -0.24921,-0.56385 -0.27186,-0.62373 -0.29449,-0.68274 m 258.12689,-47.61176 -1.1861,9.20214 -9.56446,20.57794 -6.03545,3.46746 5.79805,-3.96094 9.31264,-20.44463 0.008,-0.0437 0.0162,-0.0852 0.0245,-0.12763 0.0324,-0.1696 0.0398,-0.21111 0.0481,-0.25352 0.056,-0.29547 0.0643,-0.337 0.0717,-0.3794 0.08,-0.42092 0.0874,-0.46332 0.0957,-0.50484 0.10362,-0.54681 0.11148,-0.5892 0.11979,-0.63073 0.12722,-0.67268 0.13553,-0.71465 0.14297,-0.75661 0.15126,-0.79901 0.15914,-0.84053"
     inkscape:connector-curvature="0"
     style="fill:#63000a;fill-rule:evenodd;stroke:#000000;stroke-width:0;stroke-linecap:square;stroke-linejoin:bevel;stroke-opacity:0" />
  <path
     id="shape01"
     d="m 558.5825,296.02113 c 115.96641,8.25549 -117.27672,130.47902 -334.17167,92.69166"
     inkscape:connector-curvature="0"
     style="fill:none;stroke:#840011;stroke-width:1.81220949;stroke-linecap:round;stroke-linejoin:bevel" />
</svg>
