<?xml version="1.0" encoding="UTF-8" standalone="no"?>
<!-- Created with Inkscape (http://www.inkscape.org/) -->

<svg
   width="1024"
   height="1024"
   viewBox="0 0 270.93333 270.93334"
   version="1.1"
   id="svg9536"
   inkscape:version="1.1.2 (1:1.1+202202050950+0a00cf5339)"
   sodipodi:docname="logo.svg"
   inkscape:export-filename="/home/pierre/Documents/Creation/Logo/Logophtalmo/final/logo.png"
   inkscape:export-xdpi="96.000008"
   inkscape:export-ydpi="96.000008"
   xmlns:inkscape="http://www.inkscape.org/namespaces/inkscape"
   xmlns:sodipodi="http://sodipodi.sourceforge.net/DTD/sodipodi-0.dtd"
   xmlns:xlink="http://www.w3.org/1999/xlink"
   xmlns="http://www.w3.org/2000/svg"
   xmlns:svg="http://www.w3.org/2000/svg">
  <sodipodi:namedview
     id="namedview9538"
     pagecolor="#ffffff"
     bordercolor="#666666"
     borderopacity="1.0"
     inkscape:pageshadow="2"
     inkscape:pageopacity="0.0"
     inkscape:pagecheckerboard="0"
     inkscape:document-units="mm"
     showgrid="false"
     units="px"
     inkscape:snap-global="false"
     inkscape:zoom="0.17705833"
     inkscape:cx="-547.84206"
     inkscape:cy="590.20098"
     inkscape:window-width="1366"
     inkscape:window-height="704"
     inkscape:window-x="0"
     inkscape:window-y="27"
     inkscape:window-maximized="1"
     inkscape:current-layer="layer4" />
  <defs
     id="defs9533">
    <linearGradient
       inkscape:collect="always"
       id="linearGradient34731">
      <stop
         style="stop-color:#355a89;stop-opacity:1;"
         offset="0"
         id="stop34727" />
      <stop
         style="stop-color:#42aaa2;stop-opacity:1"
         offset="1"
         id="stop34729" />
    </linearGradient>
    <linearGradient
       inkscape:collect="always"
       xlink:href="#linearGradient34731"
       id="linearGradient34733"
       x1="200.0369"
       y1="169.44594"
       x2="133.68594"
       y2="85.594818"
       gradientUnits="userSpaceOnUse" />
  </defs>
  <g
     inkscape:label="background"
     inkscape:groupmode="layer"
     id="layer1" />
  <g
     inkscape:groupmode="layer"
     id="layer2"
     inkscape:label="lines">
    <path
       style="fill:#000000;stroke-width:0.254"
       d="m 93.960937,202.60184 c -3.57573,-0.57004 -8.78551,-2.19523 -11.48093,-3.5815 -2.24352,-1.15385 -5.28307,-3.84478 -5.28307,-4.67713 0,-0.29412 0.23689,-0.83594 0.52643,-1.20403 0.80766,-1.02677 1.92283,-0.91048 3.44641,0.3594 1.84502,1.53779 4.86598,2.90963 8.98116,4.07841 2.02565,0.57531 4.54025,1.38573 5.588,1.80093 2.30531,0.91353 5.842003,2.72641 5.842003,2.99456 0,0.52323 -4.859183,0.66948 -7.620003,0.22936 z m 40.513003,-10.17822 c -4.59805,-0.27822 -12.71193,-1.17734 -14.986,-1.66064 -4.53341,-0.96346 -8.27897,-1.84015 -9.906,-2.31863 -0.9779,-0.28758 -2.63525,-0.76296 -3.683,-1.05641 -1.04775,-0.29344 -2.1336,-0.63016 -2.413,-0.74826 -0.2794,-0.1181 -2.5654,-0.86373 -5.080003,-1.65697 -2.5146,-0.79323 -4.8006,-1.54239 -5.08,-1.66479 -0.2794,-0.1224 -1.02235,-0.36213 -1.651,-0.53274 -0.62865,-0.1706 -1.2573,-0.3933 -1.397,-0.49489 -0.1397,-0.10158 -0.75673,-0.31914 -1.37117,-0.48346 -1.08759,-0.29086 -3.78777,-1.4889 -7.13783,-3.16698 -2.21896,-1.11151 -6.97415,-4.30223 -7.47291,-5.01431 -0.53773,-0.76771 -0.50518,-1.37152 0.10691,-1.98361 0.45381,-0.45381 0.84666,-0.508 3.683,-0.508 2.06182,0 3.175,-0.0942 3.175,-0.26852 0,-0.14769 -0.12285,-0.75641 -0.273,-1.35272 -0.19312,-0.76693 -0.19498,-1.78304 -0.006,-3.47236 0.43078,-3.85843 2.09238,-6.58619 4.01392,-6.58945 0.84518,-0.002 1.76798,0.49796 2.04484,1.10661 0.50259,1.10486 1.16046,3.31861 1.47255,4.95515 0.52337,2.74444 1.29145,4.98057 2.36628,6.88904 0.20564,0.36513 2.08002,1.11523 4.73278,1.894 0.6985,0.20506 2.24155,0.67503 3.429,1.04438 3.866733,1.20271 6.432873,1.93279 8.890003,2.52922 1.32715,0.32215 3.0988,0.75711 3.937,0.96658 0.8382,0.20947 3.1242,0.62629 5.08,0.92626 1.9558,0.29998 3.8989,0.64399 4.318,0.76447 0.4191,0.12048 1.5621,0.29919 2.54,0.39711 2.9654,0.29697 3.08182,0.31028 4.09766,0.46848 0.54028,0.0841 1.95389,0.21549 3.14134,0.29188 1.18745,0.0764 3.4163,0.25504 4.953,0.39698 3.50481,0.32374 22.85262,0.31167 28.956,-0.0181 8.7424,-0.4723 15.65682,-1.59176 20.32,-3.28984 0.8382,-0.30522 2.02014,-0.72822 2.62654,-0.93998 2.28645,-0.79845 5.95946,-3.04282 7.29951,-4.46031 2.75844,-2.91782 3.26702,-4.01736 3.80154,-8.21879 0.57094,-4.48766 0.55239,-4.4197 1.28204,-4.69711 1.01758,-0.38689 2.9306,-0.27645 4.05455,0.23406 1.34489,0.61087 2.78207,2.313 3.13441,3.71226 1.03774,4.12123 -0.70333,9.69701 -4.25266,13.61915 -2.07127,2.28882 -8.41002,6.22859 -12.73893,7.91771 -0.34925,0.13627 -0.8636,0.33927 -1.143,0.45111 -0.70999,0.2842 -3.33325,1.12278 -4.699,1.50213 -0.62865,0.17461 -1.42875,0.41293 -1.778,0.5296 -0.57787,0.19304 -2.25683,0.58687 -5.334,1.25119 -2.73092,0.58957 -9.2113,1.51373 -16.002,2.28202 -6.36348,0.71996 -19.20932,0.94194 -27.051,0.46744 z M 70.899247,172.58661 c -0.30817,-0.32803 -0.56031,-0.79046 -0.56031,-1.02762 0,-0.98893 2.34574,-9.34052 2.79471,-9.95006 0.10289,-0.1397 0.3341,-0.7112 0.51377,-1.27 0.37255,-1.15863 1.76367,-4.65108 2.55926,-6.42509 0.70724,-1.57703 1.09434,-2.45657 1.75557,-3.98891 0.76884,-1.78171 5.16922,-10.50017 6.04678,-11.98046 0.75722,-1.27731 2.22651,-3.59226 4.49586,-7.0835 1.31307,-2.02006 4.34103,-6.16538 6.66909,-9.13004 4.50154,-5.73249 15.856783,-17.35734 19.868963,-20.34073 6.5524,-4.872231 7.64278,-5.641221 9.57802,-6.754941 1.14676,-0.65995 3.30621,-2.01923 4.79878,-3.02064 1.49257,-1.0014 3.31414,-2.08625 4.04794,-2.41077 0.7338,-0.32452 2.30232,-1.04151 3.48559,-1.5933 1.18327,-0.5518 2.53824,-1.08294 3.01104,-1.18033 0.4728,-0.0974 2.05978,-0.50113 3.52663,-0.8972 7.56726,-2.04328 13.76632,-2.83713 17.907,-2.29317 3.11433,0.40913 8.96486,1.75115 10.052,2.30577 0.53455,0.27271 1.54712,0.72256 2.25015,0.99967 0.70304,0.27711 2.05171,0.98206 2.99705,1.56657 4.5544,2.81596 6.42495,3.55334 9.39791,3.70469 1.95063,0.0993 2.19716,0.0526 3.67006,-0.69592 2.38753,-1.21325 4.29718,-2.9282 5.93592,-5.3307 2.3982,-3.51592 5.69786,-7.92118 6.81724,-9.10146 0.87952,-0.92738 2.57469,-2.07454 3.06556,-2.07454 0.2325,0 0.15131,0.9002 -0.10423,1.15574 -0.13274,0.13274 -0.8636,1.78438 -1.62414,3.6703 -3.48376,8.63877 -6.68909,14.02933 -10.25674,17.24926 -3.02284,2.72823 -6.629,4.211041 -9.83413,4.043681 -1.5514,-0.081 -2.16864,-0.27751 -4.58665,-1.460221 -1.5367,-0.75163 -3.1051,-1.62521 -3.48534,-1.94127 -2.33125,-1.93776 -10.0741,-4.986 -14.42519,-5.67896 -4.90959,-0.78191 -10.52018,-0.56601 -16.50647,0.63517 -3.30865,0.66391 -7.31482,1.80292 -9.271,2.63589 -2.49414,1.06204 -6.50762,3.07241 -8.43601,4.3495 -1.24451,0.824181 -2.521,1.579291 -3.56549,2.317601 -0.36725,0.25519 -0.9271,0.62677 -1.2065,0.88409 -0.2794,0.25733 -1.13665,0.91637 -1.905,1.46455 -4.46234,3.18361 -14.10412,14.19139 -22.703213,25.91967 -1.84368,2.5146 -3.7611,5.20065 -4.26092,5.969 -0.49983,0.76835 -1.80352,2.7686 -2.89711,4.445 -6.21798,9.53179 -9.02737,14.3684 -12.83583,22.098 -3.80199,7.71646 -5.39645,10.65383 -5.82812,10.73676 -0.21571,0.0414 -0.64433,-0.19305 -0.9525,-0.52108 z m 101.006663,-16.7775 c -2.76359,-0.75704 -6.75615,-3.39758 -8.32128,-4.33475 -10.46021,-9.09826 -17.9169,-18.87446 -11.27909,-31.71314 4.87935,-6.39402 13.60015,-13.66706 21.46061,-11.91286 11.73024,3.55051 15.94012,11.72951 17.44472,20.24957 1.03031,7.47744 0.0558,14.15915 -2.06929,18.81721 -1.59148,3.4198 -5.73078,6.87826 -8.98557,8.4994 -2.57964,0.8895 -6.08537,0.95871 -8.2501,0.39457 z M 75.826477,106.40688 c -0.28898,-0.4676 1.82019,-2.96451 6.61341,-7.829171 7.06016,-7.16539 10.85495,-10.16432 21.096843,-16.6723 1.92916,-1.22584 5.91395,-3.31282 8.58521,-4.49639 0.6985,-0.30949 1.6129,-0.71439 2.032,-0.89977 4.44682,-1.96702 11.19168,-3.14257 18.542,-3.23164 3.86833,-0.0469 4.12451,-0.019 5.3208,0.58004 1.72166,0.86203 2.2992,1.72194 2.2992,3.42328 0,1.54806 -0.54218,2.48545 -1.89613,3.27828 -0.72712,0.42578 -1.30566,0.4795 -4.78828,0.4447 -2.17868,-0.0218 -5.22357,0.0755 -6.76641,0.21622 -2.70172,0.24639 -3.37531,0.35963 -6.99618,1.17622 -1.56126,0.3521 -2.01964,0.4636 -4.6355,1.12759 -2.64861,0.6723 -5.87121,1.6851 -8.8265,2.77399 -1.18745,0.43752 -2.67335,0.96516 -3.302,1.17254 -0.62865,0.20737 -1.3716,0.47762 -1.651,0.60056 -0.2794,0.12293 -0.9652,0.3604 -1.524003,0.52772 -4.0744,1.21995 -14.16975,8.44805 -20.28324,14.522441 -1.93558,1.9232 -3.55761,3.49674 -3.60451,3.49674 -0.0469,0 -0.14397,-0.095 -0.21571,-0.21105 z"
       id="path2418"
       sodipodi:nodetypes="ssssssssscsssssssssssssssccssssssssssssscssssssssssssssccssssssssssssssssssssssssssssssssssscscsssscscccccccccssssssssssssssssssc" />
  </g>
  <g
     inkscape:groupmode="layer"
     id="layer3"
     inkscape:label="iris">
    <g
       inkscape:label="Layer 1"
       id="layer1-6"
       transform="translate(-2.5145613,8.593346)"
       style="stroke-width:1;stroke-miterlimit:4;stroke-dasharray:none">
      <g
         id="g5643"
         transform="translate(1.4159699,0.02529749)"
         style="stroke-width:1;stroke-miterlimit:4;stroke-dasharray:none">
        <path
           style="fill:url(#linearGradient34733);stroke-width:1;stroke-miterlimit:4;stroke-dasharray:none;fill-opacity:1"
           d="m 175.29028,169.46931 c 0.26796,-0.1656 0.26722,-0.27647 -0.004,-0.60325 -0.45954,-0.5537 -1.05331,-0.50099 -1.21247,0.10764 -0.13397,0.51231 -0.8356,0.72558 -0.8356,0.254 0,-0.35649 -0.69828,-0.31817 -0.81932,0.045 -0.14355,0.43063 -0.70468,0.009 -0.70468,-0.5293 0,-0.33784 -0.21029,-0.46034 -0.81999,-0.47767 -0.451,-0.0128 -0.87962,0.0697 -0.9525,0.18337 -0.23666,0.36912 -1.34059,-0.20942 -1.18303,-0.62 0.1049,-0.27335 -0.0297,-0.37937 -0.48145,-0.37937 -0.37661,0 -0.62703,0.14618 -0.62703,0.36601 0,0.48178 -0.42724,0.73063 -0.8255,0.48082 -0.17462,-0.10953 -0.51752,-0.16624 -0.762,-0.12602 -0.50554,0.0832 -0.61071,-0.364 -0.127,-0.53998 0.23368,-0.085 0.24656,-0.23606 0.0488,-0.57213 -0.2097,-0.35632 -0.58749,-0.45513 -1.72011,-0.4499 -1.3001,0.006 -1.43578,-0.0425 -1.30166,-0.46505 0.10859,-0.34215 0.0223,-0.47175 -0.31429,-0.47175 -0.25521,0 -0.60955,-0.23303 -0.78742,-0.51784 -0.2909,-0.46581 -0.36262,-0.47862 -0.71374,-0.1275 -0.48389,0.48389 -1.37106,0.1013 -1.37106,-0.59126 0,-0.65649 -0.25034,-0.81523 -0.81179,-0.51475 -0.39144,0.2095 -0.42987,0.33645 -0.18951,0.62607 0.17472,0.21052 0.1947,0.36328 0.0475,0.36328 -0.1397,0 -0.40399,-0.18073 -0.58732,-0.40162 -0.2614,-0.31497 -0.2681,-0.50604 -0.0311,-0.88555 0.43071,-0.68967 0.3831,-0.7748 -0.33278,-0.59513 -0.37274,0.0935 -0.635,0.0502 -0.635,-0.10504 0,-0.14544 -0.21686,-0.33325 -0.48191,-0.41738 -0.32698,-0.10378 -0.4402,-0.31243 -0.35218,-0.64903 0.14024,-0.53627 -0.0152,-0.62547 -1.52876,-0.87747 -0.5675,-0.0945 -1.03201,-0.33835 -1.12627,-0.59129 -0.0882,-0.23677 -0.36798,-0.57984 -0.62165,-0.76239 -0.25368,-0.18255 -0.46123,-0.55402 -0.46123,-0.8255 0,-0.55852 -0.26626,-0.63373 -0.70176,-0.19824 -0.22448,0.22449 -0.35509,0.13827 -0.54425,-0.35926 -0.13689,-0.36005 -0.48404,-0.72926 -0.77144,-0.82048 -0.36769,-0.1167 -0.52255,-0.38215 -0.52255,-0.89574 0,-0.40144 -0.1219,-0.80524 -0.2709,-0.89732 -0.4057,-0.25074 -0.62916,0.10098 -0.28366,0.44648 0.36714,0.36714 0.38952,0.70696 0.0466,0.70696 -0.1397,0 -0.254,-0.14395 -0.254,-0.3199 0,-0.17594 -0.2286,-0.46266 -0.508,-0.63715 -0.52535,-0.32809 -0.70183,-1.07495 -0.254,-1.07495 0.1397,0 0.254,-0.2286 0.254,-0.508 0,-0.41124 -0.16933,-0.508 -0.889,-0.508 -0.84876,0 -0.889,-0.0407 -0.889,-0.90013 0,-0.57808 -0.1136,-0.88182 -0.3175,-0.84894 -0.55235,0.0891 -1.2065,-0.32137 -1.2065,-0.757 0,-0.23085 -0.23729,-0.56792 -0.52731,-0.74904 -0.39164,-0.24458 -0.45755,-0.41335 -0.2562,-0.65597 0.33317,-0.40144 0.10561,-0.66092 -0.57962,-0.66092 -0.4017,0 -0.44873,-0.0677 -0.21167,-0.3048 0.4478,-0.4478 0.37255,-0.7112 -0.2032,-0.7112 -0.29974,0 -0.52386,-0.18223 -0.54669,-0.4445 -0.0213,-0.24447 -0.0516,-0.57188 -0.0673,-0.72757 -0.0157,-0.15569 -0.1688,-0.45196 -0.3401,-0.65837 -0.17131,-0.20641 -0.28389,-0.4233 -0.25017,-0.48197 0.0337,-0.0587 -0.0656,0.0376 -0.22071,0.21387 -0.35817,0.40711 -0.55381,0.40822 -0.53876,0.003 0.0461,-1.24265 -0.10803,-1.9685 -0.41814,-1.9685 -0.57722,0 -0.95869,-0.62181 -0.60094,-0.97956 0.24011,-0.2401 0.18184,-0.33983 -0.26716,-0.45725 -0.42716,-0.1117 -0.53452,-0.27534 -0.41914,-0.63887 0.0853,-0.26878 0.0186,-0.65321 -0.14829,-0.85427 -0.16687,-0.20107 -0.23316,-0.54864 -0.1473,-0.77238 0.0874,-0.22781 -0.0677,-0.69134 -0.35258,-1.05349 -0.27978,-0.35568 -0.50941,-0.77415 -0.51029,-0.92993 -7.7e-4,-0.15579 -0.37093,-0.49354 -0.82232,-0.75055 -0.79627,-0.45339 -0.80572,-0.47827 -0.31713,-0.83553 0.40569,-0.29665 0.43578,-0.41013 0.15477,-0.5838 -0.19184,-0.11857 -0.27192,-0.33998 -0.17795,-0.49202 0.094,-0.15205 0.21315,-0.61057 0.26483,-1.01894 0.0779,-0.61565 -0.009,-0.76223 -0.51046,-0.85804 -0.33243,-0.0635 -0.64991,0.0107 -0.7055,0.16505 -0.0556,0.15432 -0.19646,0.19134 -0.31301,0.0823 -0.11656,-0.10907 -0.0179,-0.52675 0.21922,-0.92819 0.48074,-0.81382 0.5643,-1.5405 0.17715,-1.5405 -0.1397,0 -0.254,0.19431 -0.254,0.4318 0,0.33608 -0.0676,0.36417 -0.3051,0.1267 -0.1678,-0.1678 -0.32381,-0.96292 -0.34667,-1.76694 -0.0316,-1.11159 -0.2006,-1.69617 -0.7053,-2.43988 -0.43428,-0.63996 -0.5971,-1.12229 -0.47101,-1.39536 0.25562,-0.5536 0.186,-1.82244 -0.1114,-2.03014 -0.4364,-0.30477 -0.24297,-1.77586 0.28848,-2.19403 l 0.508,-0.39971 -0.508,0.037 c -1.20278,0.0877 -1.55722,-0.37749 -0.77946,-1.02298 0.19995,-0.16594 0.35447,-0.62066 0.34339,-1.01049 -0.0111,-0.38983 0.0607,-0.83956 0.15945,-0.99939 0.0988,-0.15984 0.0557,-0.29061 -0.0957,-0.29061 -0.15141,0 -0.38393,0.28575 -0.51671,0.635 -0.13278,0.34925 -0.27283,0.63494 -0.31121,0.63487 -0.23834,-5.1e-4 0.005,-2.04335 0.2828,-2.37863 0.18658,-0.22482 0.27652,-0.57222 0.19987,-0.77198 -0.0767,-0.19977 0.037,-0.43089 0.25252,-0.5136 0.27445,-0.10532 0.34432,-0.34 0.23312,-0.78303 -0.12993,-0.51771 -0.0656,-0.63263 0.35406,-0.63263 0.28206,0 0.51284,-0.0572 0.51284,-0.127 0,-0.18206 -0.98584,-1.143 -1.17262,-1.143 -0.0862,0 -0.0969,0.2286 -0.0238,0.508 0.16375,0.62618 -0.038,0.6538 -0.46909,0.0642 -0.3859,-0.52775 -0.0455,-1.08022 0.66561,-1.08022 0.77448,0 0.81966,-0.49252 0.0713,-0.77706 -0.52773,-0.20064 -0.61814,-0.3219 -0.35928,-0.48189 0.19025,-0.11758 0.27518,-0.39811 0.18872,-0.6234 -0.15094,-0.39335 0.16859,-1.06929 1.19707,-2.53227 0.2634,-0.37468 0.3977,-0.76244 0.29845,-0.86169 -0.0992,-0.0992 -0.29541,0.025 -0.43591,0.27601 -0.19988,0.35718 -0.3327,0.39236 -0.61061,0.16172 -0.46186,-0.38332 -0.0195,-1.3035 0.52605,-1.09417 0.30346,0.11645 0.34413,-0.0157 0.21048,-0.68395 -0.11879,-0.59392 -0.0827,-0.77702 0.12754,-0.64708 0.16126,0.0997 0.5304,0.0151 0.82031,-0.18798 0.54831,-0.38406 0.30005,-0.78242 -0.3356,-0.5385 -0.19977,0.0767 -0.50983,-0.0373 -0.68902,-0.25318 -0.27153,-0.32717 -0.25582,-0.39256 0.0943,-0.39256 0.23104,0 0.49421,-0.20002 0.58482,-0.4445 0.0906,-0.24447 0.45786,-0.89239 0.81611,-1.43981 0.4552,-0.69555 0.55617,-1.02703 0.33528,-1.10066 -0.53111,-0.17704 -0.35772,-0.62382 0.57292,-1.476252 0.90646,-0.830283 1.22265,-1.746865 0.508,-1.472631 -0.70981,0.272379 -0.3862,-0.438465 0.33957,-0.745907 0.39631,-0.167881 0.67253,-0.448114 0.61383,-0.622739 -0.1364,-0.40576 0.24905,-0.410454 0.65156,-0.0079 0.24342,0.243416 0.27465,0.135004 0.14618,-0.50737 -0.10136,-0.506819 -0.0432,-0.961801 0.15334,-1.198563 0.25424,-0.306346 0.24796,-0.469313 -0.0319,-0.826129 -0.3222,-0.410843 -0.31013,-0.416482 0.1594,-0.07448 0.2794,0.203512 0.70548,0.603562 0.94685,0.889 0.43522,0.514682 0.43887,0.514774 0.44061,0.01097 0.001,-0.2794 -0.10281,-0.67329 -0.23063,-0.875314 -0.27744,-0.438536 0.10619,-1.283686 0.5827,-1.283686 0.17856,0 0.48053,-0.397251 0.67103,-0.882782 0.25839,-0.658528 0.42666,-0.816147 0.66242,-0.620481 0.23815,0.19764 0.28422,0.140564 0.18691,-0.231554 -0.1563,-0.59768 0.39314,-1.010664 0.69493,-0.522346 0.25805,0.417528 0.65223,0.08423 0.78511,-0.663837 0.0647,-0.363972 0.32505,-0.530667 0.91847,-0.587951 0.45554,-0.04398 0.76991,-0.174348 0.6986,-0.289718 -0.0713,-0.115369 0.18371,-0.411708 0.56668,-0.65853 0.38298,-0.246822 0.78507,-0.597477 0.89354,-0.779234 0.10847,-0.181758 0.36564,-0.265837 0.5715,-0.186843 0.20585,0.07899 0.37428,0.01036 0.37428,-0.152539 0,-0.162891 0.10131,-0.233556 0.22512,-0.157031 0.12382,0.07652 0.28288,-0.08171 0.35346,-0.35162 0.15017,-0.57424 1.36192,-0.57056 1.71777,0.0052 0.27184,0.439845 0.60699,0.125075 0.61702,-0.579508 0.004,-0.294625 0.15051,-0.583809 0.32513,-0.642628 0.17463,-0.05882 0.3175,0.06728 0.3175,0.280231 0,0.212946 0.11107,0.455823 0.24683,0.539722 0.25079,0.154996 1.50746,-0.531528 1.84092,-1.005698 0.12182,-0.17322 0.35357,-0.154003 0.69506,0.05763 0.66022,0.409177 0.77319,0.399898 0.77319,-0.0635 0,-0.20955 0.1143,-0.381 0.254,-0.381 0.1397,0 0.254,0.1143 0.254,0.254 0,0.330363 0.93883,0.330363 1.143,0 0.24843,-0.40196 0.70515,-0.295168 0.54315,0.127 -0.22259,0.58006 0.23185,0.454417 0.68901,-0.1905 0.35439,-0.499932 0.44575,-0.523788 0.72948,-0.1905 0.38245,0.449238 1.61562,0.630581 1.83827,0.270328 0.0991,-0.160333 0.38028,-0.165296 0.77888,-0.01374 0.34309,0.130442 0.80943,0.165936 1.03632,0.07887 0.33136,-0.127155 0.37735,-0.04751 0.23378,0.404836 -0.17503,0.551477 -0.16758,0.553588 0.35993,0.101922 0.58861,-0.503987 0.8998,-0.509704 0.90931,-0.01671 0.006,0.331178 0.32368,0.342133 1.39087,0.04802 0.6164,-0.169878 0.62012,-0.163414 0.127,0.220639 -0.3806,0.296421 -0.43556,0.469182 -0.21917,0.688874 0.20553,0.208658 0.33806,0.213588 0.45949,0.01709 0.20504,-0.33176 1.32347,-0.368742 1.52029,-0.05027 0.0768,0.124224 0.455,0.304487 0.84049,0.400586 1.33455,0.332687 2.38446,0.954339 2.2414,1.327137 -0.0757,0.19734 -0.0304,0.292466 0.10083,0.211392 0.37462,-0.231529 3.96423,1.428348 5.15317,2.382891 0.24448,0.196276 0.4445,0.274218 0.4445,0.173202 0,-0.436118 1.49776,0.930705 1.57052,1.433221 0.0472,0.325676 0.31482,0.61279 0.64632,0.693298 0.31122,0.07558 0.7983,0.337436 1.08241,0.581911 0.28411,0.244475 0.62955,0.4445 0.76766,0.4445 0.1381,0 0.25109,0.151013 0.25109,0.335583 0,0.184569 0.51435,0.782792 1.143,1.329382 0.62865,0.546593 1.143,1.19568 1.143,1.442421 0,0.504215 0.49389,0.625635 0.53332,0.131114 0.0139,-0.174625 0.10225,-0.04257 0.19628,0.293462 0.094,0.336029 0.38983,0.736079 0.65734,0.889 0.6056,0.346189 1.77333,1.668329 1.79842,2.036229 0.0394,0.57776 0.43711,1.14967 0.90211,1.29726 0.26649,0.0846 0.48453,0.37204 0.48453,0.63881 0,0.26676 0.28014,0.66858 0.62253,0.89292 0.34239,0.22435 0.87715,0.94135 1.18836,1.59336 0.3112,0.652 0.71687,1.27686 0.90147,1.38858 0.1846,0.11172 0.33564,0.41652 0.33564,0.67733 0,0.26082 0.0857,0.51231 0.1905,0.55888 0.39637,0.17616 1.35131,1.76123 1.49554,2.48236 0.0827,0.41324 0.36575,0.94635 0.62912,1.18469 0.26336,0.23835 0.47884,0.70706 0.47884,1.0416 0,0.79359 0.71436,2.16644 1.02682,1.97333 0.13375,-0.0827 0.25777,-7.6e-4 0.2756,0.1822 0.11612,1.19108 0.19169,1.49015 0.56619,2.24086 0.22957,0.46017 0.41739,0.99873 0.41739,1.1968 0,0.19806 0.17803,0.53814 0.39561,0.75572 0.21758,0.21759 0.3327,0.55956 0.2558,0.75995 -0.0769,0.20039 0.0367,0.70571 0.25248,1.12294 0.21576,0.41724 0.32155,0.9815 0.23508,1.25391 -0.0865,0.27242 -0.0404,0.49531 0.10241,0.49531 0.14278,0 0.33084,0.42862 0.4179,0.9525 0.0871,0.52387 0.22294,1.12395 0.30195,1.3335 0.079,0.20955 0.17437,0.82525 0.21191,1.36823 0.0375,0.54297 0.18984,1.06236 0.33844,1.1542 0.1486,0.0918 0.26586,0.50484 0.26058,0.91778 -0.0257,2.00861 0.16659,3.41759 0.46634,3.41769 0.33247,1e-4 0.42448,0.31645 0.16695,0.57398 -0.0828,0.0828 -0.13532,1.50203 -0.1167,3.15384 0.0438,3.8861 0.0241,4.23761 -0.49495,8.84528 -0.43681,3.87726 -0.49012,4.14408 -1.01453,5.07775 -0.2801,0.49869 -0.50927,1.06528 -0.50927,1.25911 0,0.19382 -0.30923,0.96187 -0.68719,1.70677 -0.40057,0.78948 -0.68937,1.77813 -0.69241,2.37037 -0.006,1.14976 -0.57253,2.03348 -1.04984,1.63735 -0.21051,-0.17471 -0.43185,-0.0485 -0.74023,0.42216 -0.36368,0.55506 -0.38025,0.71275 -0.0956,0.91008 0.23508,0.16297 0.15224,0.18428 -0.26114,0.0672 -0.58459,-0.16562 -0.59157,-0.15172 -0.20258,0.40363 0.29224,0.41724 0.33397,0.70386 0.152,1.04389 -0.30022,0.56096 -0.74099,0.61789 -0.74099,0.0957 0,-0.22722 -0.14891,-0.31588 -0.381,-0.22682 -0.20955,0.0804 -0.381,0.37877 -0.381,0.66303 0,0.28425 -0.37147,0.87183 -0.8255,1.30572 -0.45402,0.43389 -0.8255,0.90346 -0.8255,1.04349 0,0.14004 -0.2286,0.25461 -0.508,0.25461 -0.2794,0 -0.69373,0.18574 -0.92075,0.41275 -0.22701,0.22701 -0.56991,0.47549 -0.762,0.55216 -0.27202,0.10859 -0.27991,0.1886 -0.0357,0.36182 0.24431,0.17328 0.22763,0.34513 -0.0755,0.77792 -0.38009,0.54266 -0.93311,0.62096 -1.57158,0.22251 -0.4675,-0.29175 -0.8255,0.0297 -0.8255,0.74128 0,0.7158 -1.26461,1.51972 -1.46149,0.92907 -0.13659,-0.40974 -0.51752,-0.40748 -0.50227,0.003 0.0402,1.08345 -0.0636,1.19869 -1.02074,1.13252 -0.52387,-0.0362 -1.10815,-0.16333 -1.29839,-0.28248 -0.21489,-0.13457 -0.42164,-0.0941 -0.54587,0.10693 -0.10998,0.17796 -0.38295,0.25334 -0.6066,0.16751 -0.22365,-0.0858 -0.40664,-0.0548 -0.40664,0.0688 0,0.12367 0.14288,0.28251 0.3175,0.35297 0.17463,0.0705 -0.11787,0.13714 -0.64999,0.14817 -0.53212,0.011 -0.90173,0.12645 -0.82136,0.2565 0.0804,0.13005 0.03,0.30824 -0.112,0.39599 -0.14198,0.0877 -0.25815,0.0516 -0.25815,-0.0802 0,-0.13187 -0.2878,-0.42835 -0.63957,-0.65884 -0.59139,-0.38749 -0.65159,-0.38776 -0.79901,-0.004 -0.0877,0.22852 -0.0138,0.50547 0.16411,0.61546 0.17796,0.10998 0.2397,0.33565 0.13721,0.50148 -0.13308,0.21532 -0.32392,0.15386 -0.66754,-0.21498 -0.26466,-0.28408 -0.4812,-0.63558 -0.4812,-0.78113 0,-0.14554 -0.10495,-0.26462 -0.23322,-0.26462 -0.12828,0 -0.44229,-0.0802 -0.69781,-0.17827 -0.44584,-0.17109 -0.44668,-0.15095 -0.0208,0.49906 0.60211,0.91894 0.55982,1.13971 -0.21831,1.13971 -0.43487,0 -0.54944,-0.0696 -0.33383,-0.20289 z m -5.60805,-1.76561 c 0,-0.1397 -0.1143,-0.254 -0.254,-0.254 -0.1397,0 -0.254,0.1143 -0.254,0.254 0,0.1397 0.1143,0.254 0.254,0.254 0.1397,0 0.254,-0.1143 0.254,-0.254 z m -5.842,-2.032 c 0,-0.1397 -0.1143,-0.254 -0.254,-0.254 -0.1397,0 -0.254,0.1143 -0.254,0.254 0,0.1397 0.1143,0.254 0.254,0.254 0.1397,0 0.254,-0.1143 0.254,-0.254 z m 18.16568,-19.7769 c 3.02709,-1.41655 4.84185,-3.38608 6.47603,-7.02836 2.76512,-6.16294 1.72844,-15.77454 -2.53223,-23.47769 -7.62311,-13.78232 -22.34357,-16.705183 -27.97301,-5.55427 -1.47345,2.91864 -1.8713,4.97634 -1.85791,9.60922 0.01,3.47416 0.11,4.58201 0.58439,6.477 0.58604,2.34098 2.02203,6.16028 2.91273,7.747 0.27448,0.48895 0.78634,1.40335 1.13748,2.032 1.58988,2.84642 5.67653,7.02328 8.58535,8.77488 2.99499,1.80349 5.33366,2.41927 8.67077,2.28305 1.9684,-0.0804 2.6291,-0.22299 3.9964,-0.86283 z m -47.37568,-27.57911 c 0,-0.0616 -0.1143,-0.18265 -0.254,-0.26899 -0.1397,-0.0863 -0.254,-0.0359 -0.254,0.11201 0,0.14795 0.1143,0.26899 0.254,0.26899 0.1397,0 0.254,-0.0504 0.254,-0.11201 z m 1.016,-1.93498 c 0,-0.13145 -0.1143,-0.23901 -0.254,-0.23901 -0.1397,0 -0.254,0.1782 -0.254,0.39599 0,0.2178 0.1143,0.32535 0.254,0.23901 0.1397,-0.0863 0.254,-0.26453 0.254,-0.39599 z m 0.254,-5.82701 c 0,-0.1397 -0.12105,-0.254 -0.26899,-0.254 -0.14795,0 -0.19835,0.1143 -0.11201,0.254 0.0863,0.1397 0.20739,0.254 0.26899,0.254 0.0616,0 0.11201,-0.1143 0.11201,-0.254 z m 1.397,-6.858 c 0.0863,-0.1397 -0.0212,-0.254 -0.23901,-0.254 -0.21779,0 -0.39599,0.1143 -0.39599,0.254 0,0.1397 0.10755,0.254 0.23901,0.254 0.13146,0 0.30965,-0.1143 0.39599,-0.254 z m -0.127,30.734 c 0,-0.1397 0.1143,-0.254 0.254,-0.254 0.1397,0 0.254,0.1143 0.254,0.254 0,0.1397 -0.1143,0.254 -0.254,0.254 -0.1397,0 -0.254,-0.1143 -0.254,-0.254 z m -3.556,-19.05 c 0,-0.1397 0.12105,-0.254 0.26899,-0.254 0.14795,0 0.19835,0.1143 0.11201,0.254 -0.0863,0.1397 -0.20739,0.254 -0.26899,0.254 -0.0616,0 -0.11201,-0.1143 -0.11201,-0.254 z m 2.794,-13.17802 c 0,-0.1397 0.1143,-0.32464 0.254,-0.41098 0.1397,-0.0863 0.254,-0.0427 0.254,0.097 0,0.1397 -0.1143,0.32464 -0.254,0.41098 -0.1397,0.0863 -0.254,0.0427 -0.254,-0.097 z m 0.762,-2.427988 c 0,-0.217795 0.1143,-0.395991 0.254,-0.395991 0.1397,0 0.254,0.107554 0.254,0.239009 0,0.131455 -0.1143,0.309651 -0.254,0.39599 -0.1397,0.0863 -0.254,-0.02121 -0.254,-0.239008 z"
           id="path5645" />
      </g>
      <path
         style="fill:#000000;stroke-width:1;stroke-miterlimit:4;stroke-dasharray:none"
         id="path5605"
         d="" />
    </g>
  </g>
  <g
     inkscape:groupmode="layer"
     id="layer4"
     inkscape:label="cross">
    <path
       style="opacity:0.70718374;fill:#ffffff;fill-opacity:1;stroke-width:0.172666"
       d="m 157.48158,127.88066 c -0.47103,-0.17519 -0.52592,-0.33027 -0.89365,-2.52478 -0.18615,-1.11089 -0.38327,-2.27107 -0.43804,-2.5782 -0.0548,-0.30711 -0.21078,-0.65068 -0.34669,-0.76347 -0.28202,-0.23406 -1.55444,-0.21983 -4.14047,0.0463 -1.21024,0.12455 -1.85922,0.12519 -2.08928,0.002 -0.19552,-0.10464 -0.55595,-0.77171 -0.87039,-1.61087 -0.29516,-0.78774 -0.81142,-2.14577 -1.14724,-3.01782 -0.33581,-0.87206 -0.56374,-1.7076 -0.5065,-1.85678 0.14802,-0.38571 1.58626,-0.75963 4.01814,-1.04465 1.15513,-0.13538 2.16961,-0.28902 2.2544,-0.34142 0.24433,-0.15101 -0.10428,-1.15842 -1.21164,-3.50133 -0.56261,-1.19037 -1.02293,-2.22853 -1.02293,-2.30701 0,-0.38234 0.87721,-0.5562 2.67549,-0.53025 4.04707,0.0584 3.97899,0.0202 5.45518,3.0594 0.6563,1.35117 1.19327,2.52857 1.19327,2.61643 0,0.38351 0.73057,0.91557 1.25855,0.91658 0.30495,5.2e-4 0.75437,0.1054 0.99873,0.23292 0.24436,0.12752 1.00394,0.369 1.68795,0.53663 0.73149,0.17926 1.30507,0.4211 1.39276,0.58724 0.20093,0.38069 0.83715,3.69008 0.98289,5.11264 0.11725,1.14448 0.1169,1.14572 -0.29592,1.04647 -0.99199,-0.2385 -3.87846,-0.56599 -3.9981,-0.45362 -0.0723,0.0679 -0.0542,0.85685 0.0402,1.7532 0.0944,0.89635 0.17299,2.22248 0.17463,2.94694 0.003,1.27787 -0.0112,1.32277 -0.47184,1.50338 -0.54414,0.21334 -4.22491,0.34649 -4.69947,0.16999 z"
       id="path9147"
       inkscape:export-filename="/home/pierre/Documents/Creation/Logo/Logophtalmo/final/declination/logo/logo_8.png"
       inkscape:export-xdpi="305.995"
       inkscape:export-ydpi="305.995" />
  </g>
</svg>
